<?xml version="1.0" encoding="UTF-8" standalone="no"?><svg xmlns="http://www.w3.org/2000/svg" xmlns:xlink="http://www.w3.org/1999/xlink" clip-rule="evenodd" stroke-miterlimit="4.00" viewBox="0 0 439 60"><desc>SVG generated by Keynote</desc><defs></defs><g transform="matrix(1.00, 0.00, -0.00, -1.00, 0.0, 60.0)"><text xml:space="preserve" font-family="Avenir-Medium" font-size="21.0" fill="#9A958D" transform="matrix(1.00, 0.00, -0.00, -1.00, 0.0, 38.2)">•</text><text xml:space="preserve" font-family="Avenir-Medium" font-size="28.0" fill="#5B5753" transform="matrix(1.00, 0.00, -0.00, -1.00, 30.0, 36.0)">C</text><text xml:space="preserve" font-family="Avenir-Medium" font-size="28.0" fill="#5B5753" transform="matrix(1.00, 0.00, -0.00, -1.00, 50.3, 36.0)"> </text><text xml:space="preserve" font-family="Avenir-Medium" font-size="28.0" fill="#5B5753" transform="matrix(1.00, 0.00, -0.00, -1.00, 58.6, 36.0)">S</text><text xml:space="preserve" font-family="Avenir-Medium" font-size="28.0" fill="#5B5753" transform="matrix(1.00, 0.00, -0.00, -1.00, 74.7, 36.0)">y</text><text xml:space="preserve" font-family="Avenir-Medium" font-size="28.0" fill="#5B5753" transform="matrix(1.00, 0.00, -0.00, -1.00, 89.3, 36.0)">n</text><text xml:space="preserve" font-family="Avenir-Medium" font-size="28.0" fill="#5B5753" transform="matrix(1.00, 0.00, -0.00, -1.00, 105.4, 36.0)">t</text><text xml:space="preserve" font-family="Avenir-Medium" font-size="28.0" fill="#5B5753" transform="matrix(1.00, 0.00, -0.00, -1.00, 116.4, 36.0)">a</text><text xml:space="preserve" font-family="Avenir-Medium" font-size="28.0" fill="#5B5753" transform="matrix(1.00, 0.00, -0.00, -1.00, 131.4, 36.0)">x</text><text xml:space="preserve" font-family="LucidaGrande-Bold" font-weight="bold" font-size="28.0" fill="#5B5753" transform="matrix(1.00, 0.00, -0.00, -1.00, 146.5, 36.0)"> </text><text xml:space="preserve" font-family="Courier" font-size="22.0" fill="#5B5753" transform="matrix(1.00, 0.00, -0.00, -1.00, 30.0, 5.0)">v</text><text xml:space="preserve" font-family="Courier" font-size="22.0" fill="#5B5753" transform="matrix(1.00, 0.00, -0.00, -1.00, 43.6, 5.0)">a</text><text xml:space="preserve" font-family="Courier" font-size="22.0" fill="#5B5753" transform="matrix(1.00, 0.00, -0.00, -1.00, 57.3, 5.0)">r</text><text xml:space="preserve" font-family="Courier" font-size="22.0" fill="#5B5753" transform="matrix(1.00, 0.00, -0.00, -1.00, 70.9, 5.0)"> </text><text xml:space="preserve" font-family="Courier" font-size="22.0" fill="#5B5753" transform="matrix(1.00, 0.00, -0.00, -1.00, 84.6, 5.0)">r</text><text xml:space="preserve" font-family="Courier" font-size="22.0" fill="#5B5753" transform="matrix(1.00, 0.00, -0.00, -1.00, 98.2, 5.0)">e</text><text xml:space="preserve" font-family="Courier" font-size="22.0" fill="#5B5753" transform="matrix(1.00, 0.00, -0.00, -1.00, 111.9, 5.0)">f</text><text xml:space="preserve" font-family="Courier" font-size="22.0" fill="#5B5753" transform="matrix(1.00, 0.00, -0.00, -1.00, 125.5, 5.0)">e</text><text xml:space="preserve" font-family="Courier" font-size="22.0" fill="#5B5753" transform="matrix(1.00, 0.00, -0.00, -1.00, 139.2, 5.0)">r</text><text xml:space="preserve" font-family="Courier" font-size="22.0" fill="#5B5753" transform="matrix(1.00, 0.00, -0.00, -1.00, 152.8, 5.0)">e</text><text xml:space="preserve" font-family="Courier" font-size="22.0" fill="#5B5753" transform="matrix(1.00, 0.00, -0.00, -1.00, 166.4, 5.0)">n</text><text xml:space="preserve" font-family="Courier" font-size="22.0" fill="#5B5753" transform="matrix(1.00, 0.00, -0.00, -1.00, 180.1, 5.0)">c</text><text xml:space="preserve" font-family="Courier" font-size="22.0" fill="#5B5753" transform="matrix(1.00, 0.00, -0.00, -1.00, 193.7, 5.0)">e</text><text xml:space="preserve" font-family="Courier" font-size="22.0" fill="#5B5753" transform="matrix(1.00, 0.00, -0.00, -1.00, 207.4, 5.0)">*</text><text xml:space="preserve" font-family="Courier" font-size="22.0" fill="#5B5753" transform="matrix(1.00, 0.00, -0.00, -1.00, 221.0, 5.0)"> </text><text xml:space="preserve" font-family="Courier" font-size="22.0" fill="#5B5753" transform="matrix(1.00, 0.00, -0.00, -1.00, 234.7, 5.0)">M</text><text xml:space="preserve" font-family="Courier" font-size="22.0" fill="#5B5753" transform="matrix(1.00, 0.00, -0.00, -1.00, 248.3, 5.0)">y</text><text xml:space="preserve" font-family="Courier" font-size="22.0" fill="#5B5753" transform="matrix(1.00, 0.00, -0.00, -1.00, 262.0, 5.0)">C</text><text xml:space="preserve" font-family="Courier" font-size="22.0" fill="#5B5753" transform="matrix(1.00, 0.00, -0.00, -1.00, 275.6, 5.0)">l</text><text xml:space="preserve" font-family="Courier" font-size="22.0" fill="#5B5753" transform="matrix(1.00, 0.00, -0.00, -1.00, 289.2, 5.0)">a</text><text xml:space="preserve" font-family="Courier" font-size="22.0" fill="#5B5753" transform="matrix(1.00, 0.00, -0.00, -1.00, 302.9, 5.0)">s</text><text xml:space="preserve" font-family="Courier" font-size="22.0" fill="#5B5753" transform="matrix(1.00, 0.00, -0.00, -1.00, 316.5, 5.0)">s</text><text xml:space="preserve" font-family="Courier" font-size="22.0" fill="#5B5753" transform="matrix(1.00, 0.00, -0.00, -1.00, 330.2, 5.0)">=</text><text xml:space="preserve" font-family="Courier" font-size="22.0" fill="#5B5753" transform="matrix(1.00, 0.00, -0.00, -1.00, 343.8, 5.0)">&amp;</text><text xml:space="preserve" font-family="Courier" font-size="22.0" fill="#5B5753" transform="matrix(1.00, 0.00, -0.00, -1.00, 357.5, 5.0)">s</text><text xml:space="preserve" font-family="Courier" font-size="22.0" fill="#5B5753" transform="matrix(1.00, 0.00, -0.00, -1.00, 371.1, 5.0)">o</text><text xml:space="preserve" font-family="Courier" font-size="22.0" fill="#5B5753" transform="matrix(1.00, 0.00, -0.00, -1.00, 384.8, 5.0)">u</text><text xml:space="preserve" font-family="Courier" font-size="22.0" fill="#5B5753" transform="matrix(1.00, 0.00, -0.00, -1.00, 398.4, 5.0)">r</text><text xml:space="preserve" font-family="Courier" font-size="22.0" fill="#5B5753" transform="matrix(1.00, 0.00, -0.00, -1.00, 412.0, 5.0)">c</text><text xml:space="preserve" font-family="Courier" font-size="22.0" fill="#5B5753" transform="matrix(1.00, 0.00, -0.00, -1.00, 425.7, 5.0)">e</text></g></svg>