<?xml version="1.0" encoding="UTF-8" standalone="no"?><svg xmlns="http://www.w3.org/2000/svg" xmlns:xlink="http://www.w3.org/1999/xlink" clip-rule="evenodd" stroke-miterlimit="4.00" viewBox="0 0 540 176"><desc>SVG generated by Keynote</desc><defs><pattern id="C92F9423-B65D-4F1D-8AFB-34106DA13EF0" patternUnits="userSpaceOnUse" width="186" height="186" viewBox="0 0 186 186" patternTransform="matrix(1.000000, 0.000000, 0.000000, -1.000000, 1.000000, 174.375000)"><image xlink:href="EE262A79EBB6589A38EAE3B325610215.jpeg" width="186.00" height="186.00"></image></pattern></defs><g transform="matrix(1.00, 0.00, -0.00, -1.00, 0.0, 176.0)"><g><clipPath id="clip-23"><path d="M 1.0 174.4 L 538.1 174.4 L 538.1 1.5 L 1.0 1.5 Z M 1.0 174.4 "></path></clipPath><g clip-path="url(#clip-23)"><g><clipPath id="clip-24"><path d="M 0.0 0.5 L 539.1 0.5 L 539.1 175.4 L 0.0 175.4 Z M 0.0 0.5 "></path></clipPath><g clip-path="url(#clip-24)"><path d="M 1.0 1.5 L 538.1 1.5 L 538.1 174.4 L 1.0 174.4 Z M 1.0 1.5 " fill="url(#C92F9423-B65D-4F1D-8AFB-34106DA13EF0)"></path><path d="M 1.0 174.4 L 538.1 174.4 L 538.1 1.5 L 1.0 1.5 Z M 1.0 174.4 " fill="#1D1722" fill-opacity="0.38"></path></g></g></g></g><g><clipPath id="clip-25"><path d="M 12.1 31.9 L 1024.1 31.9 L 1024.1 159.9 L 12.1 159.9 Z M 12.1 31.9 "></path></clipPath><g clip-path="url(#clip-25)"><text xml:space="preserve" font-family="Courier" font-size="24.0" fill="#FEFFFF" transform="matrix(1.00, 0.00, -0.00, -1.00, 18.0, 131.0)">a</text><text xml:space="preserve" font-family="Courier" font-size="24.0" fill="#FEFFFF" transform="matrix(1.00, 0.00, -0.00, -1.00, 32.4, 131.0)">l</text><text xml:space="preserve" font-family="Courier" font-size="24.0" fill="#FEFFFF" transform="matrix(1.00, 0.00, -0.00, -1.00, 46.8, 131.0)">l</text><text xml:space="preserve" font-family="Courier" font-size="24.0" fill="#FEFFFF" transform="matrix(1.00, 0.00, -0.00, -1.00, 61.2, 131.0)">S</text><text xml:space="preserve" font-family="Courier" font-size="24.0" fill="#FEFFFF" transform="matrix(1.00, 0.00, -0.00, -1.00, 75.6, 131.0)">p</text><text xml:space="preserve" font-family="Courier" font-size="24.0" fill="#FEFFFF" transform="matrix(1.00, 0.00, -0.00, -1.00, 90.0, 131.0)">r</text><text xml:space="preserve" font-family="Courier" font-size="24.0" fill="#FEFFFF" transform="matrix(1.00, 0.00, -0.00, -1.00, 104.4, 131.0)">i</text><text xml:space="preserve" font-family="Courier" font-size="24.0" fill="#FEFFFF" transform="matrix(1.00, 0.00, -0.00, -1.00, 118.8, 131.0)">t</text><text xml:space="preserve" font-family="Courier" font-size="24.0" fill="#FEFFFF" transform="matrix(1.00, 0.00, -0.00, -1.00, 133.2, 131.0)">e</text><text xml:space="preserve" font-family="Courier" font-size="24.0" fill="#FEFFFF" transform="matrix(1.00, 0.00, -0.00, -1.00, 147.6, 131.0)">s</text><text xml:space="preserve" font-family="Courier" font-size="24.0" fill="#FEFFFF" transform="matrix(1.00, 0.00, -0.00, -1.00, 162.0, 131.0)">:</text><text xml:space="preserve" font-family="Courier" font-size="24.0" fill="#FEFFFF" transform="matrix(1.00, 0.00, -0.00, -1.00, 176.5, 131.0)">=</text><text xml:space="preserve" font-family="Courier" font-size="24.0" fill="#FEFFFF" transform="matrix(1.00, 0.00, -0.00, -1.00, 190.9, 131.0)">m</text><text xml:space="preserve" font-family="Courier" font-size="24.0" fill="#FEFFFF" transform="matrix(1.00, 0.00, -0.00, -1.00, 205.3, 131.0)">a</text><text xml:space="preserve" font-family="Courier" font-size="24.0" fill="#FEFFFF" transform="matrix(1.00, 0.00, -0.00, -1.00, 219.7, 131.0)">k</text><text xml:space="preserve" font-family="Courier" font-size="24.0" fill="#FEFFFF" transform="matrix(1.00, 0.00, -0.00, -1.00, 234.1, 131.0)">e</text><text xml:space="preserve" font-family="Courier" font-size="24.0" fill="#FEFFFF" transform="matrix(1.00, 0.00, -0.00, -1.00, 248.5, 131.0)">(</text><text xml:space="preserve" font-family="Courier" font-size="24.0" fill="#FEFFFF" transform="matrix(1.00, 0.00, -0.00, -1.00, 262.9, 131.0)">[</text><text xml:space="preserve" font-family="Courier" font-size="24.0" fill="#FEFFFF" transform="matrix(1.00, 0.00, -0.00, -1.00, 277.3, 131.0)">]</text><text xml:space="preserve" font-family="Courier" font-size="24.0" fill="#FEFFFF" transform="matrix(1.00, 0.00, -0.00, -1.00, 291.7, 131.0)">V</text><text xml:space="preserve" font-family="Courier" font-size="24.0" fill="#FEFFFF" transform="matrix(1.00, 0.00, -0.00, -1.00, 306.1, 131.0)">o</text><text xml:space="preserve" font-family="Courier" font-size="24.0" fill="#FEFFFF" transform="matrix(1.00, 0.00, -0.00, -1.00, 320.5, 131.0)">x</text><text xml:space="preserve" font-family="Courier" font-size="24.0" fill="#FEFFFF" transform="matrix(1.00, 0.00, -0.00, -1.00, 334.9, 131.0)">e</text><text xml:space="preserve" font-family="Courier" font-size="24.0" fill="#FEFFFF" transform="matrix(1.00, 0.00, -0.00, -1.00, 349.3, 131.0)">l</text><text xml:space="preserve" font-family="Courier" font-size="24.0" fill="#FEFFFF" transform="matrix(1.00, 0.00, -0.00, -1.00, 363.7, 131.0)">S</text><text xml:space="preserve" font-family="Courier" font-size="24.0" fill="#FEFFFF" transform="matrix(1.00, 0.00, -0.00, -1.00, 378.1, 131.0)">p</text><text xml:space="preserve" font-family="Courier" font-size="24.0" fill="#FEFFFF" transform="matrix(1.00, 0.00, -0.00, -1.00, 392.5, 131.0)">r</text><text xml:space="preserve" font-family="Courier" font-size="24.0" fill="#FEFFFF" transform="matrix(1.00, 0.00, -0.00, -1.00, 406.9, 131.0)">i</text><text xml:space="preserve" font-family="Courier" font-size="24.0" fill="#FEFFFF" transform="matrix(1.00, 0.00, -0.00, -1.00, 421.3, 131.0)">t</text><text xml:space="preserve" font-family="Courier" font-size="24.0" fill="#FEFFFF" transform="matrix(1.00, 0.00, -0.00, -1.00, 435.7, 131.0)">e</text><text xml:space="preserve" font-family="Courier" font-size="24.0" fill="#FEFFFF" transform="matrix(1.00, 0.00, -0.00, -1.00, 450.1, 131.0)">,</text><text xml:space="preserve" font-family="Courier" font-size="24.0" fill="#FEFFFF" transform="matrix(1.00, 0.00, -0.00, -1.00, 464.5, 131.0)"> </text><text xml:space="preserve" font-family="Courier" font-size="24.0" fill="#FEFFFF" transform="matrix(1.00, 0.00, -0.00, -1.00, 479.0, 131.0)">5</text><text xml:space="preserve" font-family="Courier" font-size="24.0" fill="#FEFFFF" transform="matrix(1.00, 0.00, -0.00, -1.00, 493.4, 131.0)">)</text><text xml:space="preserve" font-family="Courier" font-size="24.0" fill="#FEFFFF" transform="matrix(1.00, 0.00, -0.00, -1.00, 18.0, 102.0)">f</text><text xml:space="preserve" font-family="Courier" font-size="24.0" fill="#FEFFFF" transform="matrix(1.00, 0.00, -0.00, -1.00, 32.4, 102.0)">o</text><text xml:space="preserve" font-family="Courier" font-size="24.0" fill="#FEFFFF" transform="matrix(1.00, 0.00, -0.00, -1.00, 46.8, 102.0)">r</text><text xml:space="preserve" font-family="Courier" font-size="24.0" fill="#FEFFFF" transform="matrix(1.00, 0.00, -0.00, -1.00, 61.2, 102.0)"> </text><text xml:space="preserve" font-family="Courier" font-size="24.0" fill="#FEFFFF" transform="matrix(1.00, 0.00, -0.00, -1.00, 75.6, 102.0)">i</text><text xml:space="preserve" font-family="Courier" font-size="24.0" fill="#FEFFFF" transform="matrix(1.00, 0.00, -0.00, -1.00, 90.0, 102.0)">,</text><text xml:space="preserve" font-family="Courier" font-size="24.0" fill="#FEFFFF" transform="matrix(1.00, 0.00, -0.00, -1.00, 104.4, 102.0)">s</text><text xml:space="preserve" font-family="Courier" font-size="24.0" fill="#FEFFFF" transform="matrix(1.00, 0.00, -0.00, -1.00, 118.8, 102.0)">p</text><text xml:space="preserve" font-family="Courier" font-size="24.0" fill="#FEFFFF" transform="matrix(1.00, 0.00, -0.00, -1.00, 133.2, 102.0)">r</text><text xml:space="preserve" font-family="Courier" font-size="24.0" fill="#FEFFFF" transform="matrix(1.00, 0.00, -0.00, -1.00, 147.6, 102.0)">i</text><text xml:space="preserve" font-family="Courier" font-size="24.0" fill="#FEFFFF" transform="matrix(1.00, 0.00, -0.00, -1.00, 162.0, 102.0)">t</text><text xml:space="preserve" font-family="Courier" font-size="24.0" fill="#FEFFFF" transform="matrix(1.00, 0.00, -0.00, -1.00, 176.4, 102.0)">e</text><text xml:space="preserve" font-family="Courier" font-size="24.0" fill="#FEFFFF" transform="matrix(1.00, 0.00, -0.00, -1.00, 190.9, 102.0)"> </text><text xml:space="preserve" font-family="Courier" font-size="24.0" fill="#FEFFFF" transform="matrix(1.00, 0.00, -0.00, -1.00, 205.3, 102.0)">:</text><text xml:space="preserve" font-family="Courier" font-size="24.0" fill="#FEFFFF" transform="matrix(1.00, 0.00, -0.00, -1.00, 219.7, 102.0)">=</text><text xml:space="preserve" font-family="Courier" font-size="24.0" fill="#FEFFFF" transform="matrix(1.00, 0.00, -0.00, -1.00, 234.1, 102.0)">r</text><text xml:space="preserve" font-family="Courier" font-size="24.0" fill="#FEFFFF" transform="matrix(1.00, 0.00, -0.00, -1.00, 248.5, 102.0)">a</text><text xml:space="preserve" font-family="Courier" font-size="24.0" fill="#FEFFFF" transform="matrix(1.00, 0.00, -0.00, -1.00, 262.9, 102.0)">n</text><text xml:space="preserve" font-family="Courier" font-size="24.0" fill="#FEFFFF" transform="matrix(1.00, 0.00, -0.00, -1.00, 277.3, 102.0)">g</text><text xml:space="preserve" font-family="Courier" font-size="24.0" fill="#FEFFFF" transform="matrix(1.00, 0.00, -0.00, -1.00, 291.7, 102.0)">e</text><text xml:space="preserve" font-family="Courier" font-size="24.0" fill="#FEFFFF" transform="matrix(1.00, 0.00, -0.00, -1.00, 306.1, 102.0)">(</text><text xml:space="preserve" font-family="Courier" font-size="24.0" fill="#FEFFFF" transform="matrix(1.00, 0.00, -0.00, -1.00, 320.5, 102.0)">a</text><text xml:space="preserve" font-family="Courier" font-size="24.0" fill="#FEFFFF" transform="matrix(1.00, 0.00, -0.00, -1.00, 334.9, 102.0)">l</text><text xml:space="preserve" font-family="Courier" font-size="24.0" fill="#FEFFFF" transform="matrix(1.00, 0.00, -0.00, -1.00, 349.3, 102.0)">l</text><text xml:space="preserve" font-family="Courier" font-size="24.0" fill="#FEFFFF" transform="matrix(1.00, 0.00, -0.00, -1.00, 363.7, 102.0)">S</text><text xml:space="preserve" font-family="Courier" font-size="24.0" fill="#FEFFFF" transform="matrix(1.00, 0.00, -0.00, -1.00, 378.1, 102.0)">p</text><text xml:space="preserve" font-family="Courier" font-size="24.0" fill="#FEFFFF" transform="matrix(1.00, 0.00, -0.00, -1.00, 392.5, 102.0)">r</text><text xml:space="preserve" font-family="Courier" font-size="24.0" fill="#FEFFFF" transform="matrix(1.00, 0.00, -0.00, -1.00, 406.9, 102.0)">i</text><text xml:space="preserve" font-family="Courier" font-size="24.0" fill="#FEFFFF" transform="matrix(1.00, 0.00, -0.00, -1.00, 421.3, 102.0)">t</text><text xml:space="preserve" font-family="Courier" font-size="24.0" fill="#FEFFFF" transform="matrix(1.00, 0.00, -0.00, -1.00, 435.7, 102.0)">e</text><text xml:space="preserve" font-family="Courier" font-size="24.0" fill="#FEFFFF" transform="matrix(1.00, 0.00, -0.00, -1.00, 450.1, 102.0)">s</text><text xml:space="preserve" font-family="Courier" font-size="24.0" fill="#FEFFFF" transform="matrix(1.00, 0.00, -0.00, -1.00, 464.5, 102.0)">)</text><text xml:space="preserve" font-family="Courier" font-size="24.0" fill="#FEFFFF" transform="matrix(1.00, 0.00, -0.00, -1.00, 478.9, 102.0)"> </text><text xml:space="preserve" font-family="Courier" font-size="24.0" fill="#FEFFFF" transform="matrix(1.00, 0.00, -0.00, -1.00, 493.4, 102.0)">{</text><text xml:space="preserve" font-family="Courier" font-size="24.0" fill="#FEFFFF" transform="matrix(1.00, 0.00, -0.00, -1.00, 36.0, 73.0)"> </text><text xml:space="preserve" font-family="Courier" font-size="24.0" fill="#FEFFFF" transform="matrix(1.00, 0.00, -0.00, -1.00, 50.4, 73.0)"> </text><text xml:space="preserve" font-family="Courier" font-size="24.0" fill="#FEFFFF" transform="matrix(1.00, 0.00, -0.00, -1.00, 64.8, 73.0)"> </text><text xml:space="preserve" font-family="Courier" font-size="24.0" fill="#FEFFFF" transform="matrix(1.00, 0.00, -0.00, -1.00, 79.2, 73.0)"> </text><text xml:space="preserve" font-family="Courier" font-size="24.0" fill="#FEFFFF" transform="matrix(1.00, 0.00, -0.00, -1.00, 93.6, 73.0)"> </text><text xml:space="preserve" font-family="Courier" font-size="24.0" fill="#FEFFFF" transform="matrix(1.00, 0.00, -0.00, -1.00, 108.0, 73.0)">s</text><text xml:space="preserve" font-family="Courier" font-size="24.0" fill="#FEFFFF" transform="matrix(1.00, 0.00, -0.00, -1.00, 122.4, 73.0)">p</text><text xml:space="preserve" font-family="Courier" font-size="24.0" fill="#FEFFFF" transform="matrix(1.00, 0.00, -0.00, -1.00, 136.8, 73.0)">r</text><text xml:space="preserve" font-family="Courier" font-size="24.0" fill="#FEFFFF" transform="matrix(1.00, 0.00, -0.00, -1.00, 151.2, 73.0)">i</text><text xml:space="preserve" font-family="Courier" font-size="24.0" fill="#FEFFFF" transform="matrix(1.00, 0.00, -0.00, -1.00, 165.6, 73.0)">t</text><text xml:space="preserve" font-family="Courier" font-size="24.0" fill="#FEFFFF" transform="matrix(1.00, 0.00, -0.00, -1.00, 180.0, 73.0)">e</text><text xml:space="preserve" font-family="Courier" font-size="24.0" fill="#FEFFFF" transform="matrix(1.00, 0.00, -0.00, -1.00, 194.5, 73.0)">.</text><text xml:space="preserve" font-family="Courier" font-size="24.0" fill="#FEFFFF" transform="matrix(1.00, 0.00, -0.00, -1.00, 208.9, 73.0)">S</text><text xml:space="preserve" font-family="Courier" font-size="24.0" fill="#FEFFFF" transform="matrix(1.00, 0.00, -0.00, -1.00, 223.3, 73.0)">p</text><text xml:space="preserve" font-family="Courier" font-size="24.0" fill="#FEFFFF" transform="matrix(1.00, 0.00, -0.00, -1.00, 237.7, 73.0)">r</text><text xml:space="preserve" font-family="Courier" font-size="24.0" fill="#FEFFFF" transform="matrix(1.00, 0.00, -0.00, -1.00, 252.1, 73.0)">i</text><text xml:space="preserve" font-family="Courier" font-size="24.0" fill="#FEFFFF" transform="matrix(1.00, 0.00, -0.00, -1.00, 266.5, 73.0)">t</text><text xml:space="preserve" font-family="Courier" font-size="24.0" fill="#FEFFFF" transform="matrix(1.00, 0.00, -0.00, -1.00, 280.9, 73.0)">e</text><text xml:space="preserve" font-family="Courier" font-size="24.0" fill="#FEFFFF" transform="matrix(1.00, 0.00, -0.00, -1.00, 295.3, 73.0)">I</text><text xml:space="preserve" font-family="Courier" font-size="24.0" fill="#FEFFFF" transform="matrix(1.00, 0.00, -0.00, -1.00, 309.7, 73.0)">D</text><text xml:space="preserve" font-family="Courier" font-size="24.0" fill="#FEFFFF" transform="matrix(1.00, 0.00, -0.00, -1.00, 324.1, 73.0)">=</text><text xml:space="preserve" font-family="Courier" font-size="24.0" fill="#FEFFFF" transform="matrix(1.00, 0.00, -0.00, -1.00, 338.5, 73.0)">i</text><text xml:space="preserve" font-family="Courier" font-size="24.0" fill="#FEFFFF" transform="matrix(1.00, 0.00, -0.00, -1.00, 18.0, 44.0)">}</text></g></g></g></svg>