<?xml version="1.0" encoding="UTF-8" standalone="no"?><svg xmlns="http://www.w3.org/2000/svg" xmlns:xlink="http://www.w3.org/1999/xlink" clip-rule="evenodd" stroke-miterlimit="4.00" viewBox="0 0 169 30"><desc>SVG generated by Keynote</desc><defs></defs><g transform="matrix(1.00, 0.00, -0.00, -1.00, 0.0, 30.0)"><text xml:space="preserve" font-family="Avenir-Medium" font-size="21.0" fill="#9A958D" transform="matrix(1.00, 0.00, -0.00, -1.00, 0.0, 8.2)">•</text><text xml:space="preserve" font-family="Avenir-Medium" font-size="28.0" fill="#5B5753" transform="matrix(1.00, 0.00, -0.00, -1.00, 30.0, 6.0)">B</text><text xml:space="preserve" font-family="Avenir-Medium" font-size="28.0" fill="#5B5753" transform="matrix(1.00, 0.00, -0.00, -1.00, 48.2, 6.0)">e</text><text xml:space="preserve" font-family="Avenir-Medium" font-size="28.0" fill="#5B5753" transform="matrix(1.00, 0.00, -0.00, -1.00, 64.3, 6.0)"> </text><text xml:space="preserve" font-family="Avenir-Medium" font-size="28.0" fill="#5B5753" transform="matrix(1.00, 0.00, -0.00, -1.00, 72.7, 6.0)">c</text><text xml:space="preserve" font-family="Avenir-Medium" font-size="28.0" fill="#5B5753" transform="matrix(1.00, 0.00, -0.00, -1.00, 86.7, 6.0)">a</text><text xml:space="preserve" font-family="Avenir-Medium" font-size="28.0" fill="#5B5753" transform="matrix(1.00, 0.00, -0.00, -1.00, 101.8, 6.0)">r</text><text xml:space="preserve" font-family="Avenir-Medium" font-size="28.0" fill="#5B5753" transform="matrix(1.00, 0.00, -0.00, -1.00, 112.2, 6.0)">e</text><text xml:space="preserve" font-family="Avenir-Medium" font-size="28.0" fill="#5B5753" transform="matrix(1.00, 0.00, -0.00, -1.00, 128.4, 6.0)">f</text><text xml:space="preserve" font-family="Avenir-Medium" font-size="28.0" fill="#5B5753" transform="matrix(1.00, 0.00, -0.00, -1.00, 138.2, 6.0)">u</text><text xml:space="preserve" font-family="Avenir-Medium" font-size="28.0" fill="#5B5753" transform="matrix(1.00, 0.00, -0.00, -1.00, 154.4, 6.0)">l</text><text xml:space="preserve" font-family="Avenir-Medium" font-size="28.0" fill="#5B5753" transform="matrix(1.00, 0.00, -0.00, -1.00, 161.7, 6.0)">!</text></g></svg>