<?xml version="1.0" encoding="UTF-8" standalone="no"?><svg xmlns="http://www.w3.org/2000/svg" xmlns:xlink="http://www.w3.org/1999/xlink" clip-rule="evenodd" stroke-miterlimit="4.00" viewBox="0 0 292 37"><desc>SVG generated by Keynote</desc><defs></defs><g transform="matrix(1.00, 0.00, -0.00, -1.00, 0.0, 37.0)"><text xml:space="preserve" font-family="Futura-Medium" font-size="39.6" fill="#5B5753" transform="matrix(1.00, 0.00, -0.00, -1.00, -2.0, 3.0)">B</text><text xml:space="preserve" font-family="Futura-Medium" font-size="39.6" fill="#5B5753" transform="matrix(1.00, 0.00, -0.00, -1.00, 21.8, 3.0)">A</text><text xml:space="preserve" font-family="Futura-Medium" font-size="39.6" fill="#5B5753" transform="matrix(1.00, 0.00, -0.00, -1.00, 50.5, 3.0)">C</text><text xml:space="preserve" font-family="Futura-Medium" font-size="39.6" fill="#5B5753" transform="matrix(1.00, 0.00, -0.00, -1.00, 79.9, 3.0)">K</text><text xml:space="preserve" font-family="Futura-Medium" font-size="39.6" fill="#5B5753" transform="matrix(1.00, 0.00, -0.00, -1.00, 105.1, 3.0)">G</text><text xml:space="preserve" font-family="Futura-Medium" font-size="39.6" fill="#5B5753" transform="matrix(1.00, 0.00, -0.00, -1.00, 139.3, 3.0)">R</text><text xml:space="preserve" font-family="Futura-Medium" font-size="39.6" fill="#5B5753" transform="matrix(1.00, 0.00, -0.00, -1.00, 163.3, 3.0)">O</text><text xml:space="preserve" font-family="Futura-Medium" font-size="39.6" fill="#5B5753" transform="matrix(1.00, 0.00, -0.00, -1.00, 199.4, 3.0)">U</text><text xml:space="preserve" font-family="Futura-Medium" font-size="39.6" fill="#5B5753" transform="matrix(1.00, 0.00, -0.00, -1.00, 229.5, 3.0)">N</text><text xml:space="preserve" font-family="Futura-Medium" font-size="39.6" fill="#5B5753" transform="matrix(1.00, 0.00, -0.00, -1.00, 263.7, 3.0)">D</text></g></svg>