<?xml version="1.0" encoding="UTF-8" standalone="no"?><svg xmlns="http://www.w3.org/2000/svg" xmlns:xlink="http://www.w3.org/1999/xlink" clip-rule="evenodd" stroke-miterlimit="4.00" viewBox="0 0 542 121"><desc>SVG generated by Keynote</desc><defs><pattern id="15DB18ED-BD89-4058-B739-4429B6323CDE" patternUnits="userSpaceOnUse" width="186" height="186" viewBox="0 0 186 186" patternTransform="matrix(1.000000, 0.000000, 0.000000, -1.000000, 3.000000, 76.375000)"><image xlink:href="../../FE9F8BD1-103D-4063-BE44-47ECEC916DEE/assets/EE262A79EBB6589A38EAE3B325610215.jpeg" width="186.00" height="186.00"></image></pattern></defs><g transform="matrix(1.00, 0.00, -0.00, -1.00, 0.0, 121.0)"><g><clipPath id="clip-32"><path d="M 3.0 76.4 L 540.1 76.4 L 540.1 1.4 L 3.0 1.4 Z M 3.0 76.4 "></path></clipPath><g clip-path="url(#clip-32)"><g><clipPath id="clip-33"><path d="M 2.0 0.4 L 541.1 0.4 L 541.1 77.4 L 2.0 77.4 Z M 2.0 0.4 "></path></clipPath><g clip-path="url(#clip-33)"><path d="M 3.0 1.4 L 540.1 1.4 L 540.1 76.4 L 3.0 76.4 Z M 3.0 1.4 " fill="url(#15DB18ED-BD89-4058-B739-4429B6323CDE)"></path><path d="M 3.0 76.4 L 540.1 76.4 L 540.1 1.4 L 3.0 1.4 Z M 3.0 76.4 " fill="#1D1722" fill-opacity="0.38"></path></g></g></g></g><g><clipPath id="clip-34"><path d="M 14.1 20.9 L 185.6 20.9 L 185.6 61.9 L 14.1 61.9 Z M 14.1 20.9 "></path></clipPath><g clip-path="url(#clip-34)"><text xml:space="preserve" font-family="Courier" font-size="24.0" fill="#FEFFFF" transform="matrix(1.00, 0.00, -0.00, -1.00, 20.0, 33.0)">g</text><text xml:space="preserve" font-family="Courier" font-size="24.0" fill="#FEFFFF" transform="matrix(1.00, 0.00, -0.00, -1.00, 34.4, 33.0)">o</text><text xml:space="preserve" font-family="Courier" font-size="24.0" fill="#FEFFFF" transform="matrix(1.00, 0.00, -0.00, -1.00, 48.8, 33.0)"> </text><text xml:space="preserve" font-family="Courier" font-size="24.0" fill="#FEFFFF" transform="matrix(1.00, 0.00, -0.00, -1.00, 63.2, 33.0)">r</text><text xml:space="preserve" font-family="Courier" font-size="24.0" fill="#FEFFFF" transform="matrix(1.00, 0.00, -0.00, -1.00, 77.6, 33.0)">u</text><text xml:space="preserve" font-family="Courier" font-size="24.0" fill="#FEFFFF" transform="matrix(1.00, 0.00, -0.00, -1.00, 92.0, 33.0)">n</text><text xml:space="preserve" font-family="Courier" font-size="24.0" fill="#FEFFFF" transform="matrix(1.00, 0.00, -0.00, -1.00, 106.4, 33.0)"> </text><text xml:space="preserve" font-family="Courier" font-size="24.0" fill="#FEFFFF" transform="matrix(1.00, 0.00, -0.00, -1.00, 120.8, 33.0)">*</text><text xml:space="preserve" font-family="Courier" font-size="24.0" fill="#FEFFFF" transform="matrix(1.00, 0.00, -0.00, -1.00, 135.2, 33.0)">.</text><text xml:space="preserve" font-family="Courier" font-size="24.0" fill="#FEFFFF" transform="matrix(1.00, 0.00, -0.00, -1.00, 149.6, 33.0)">g</text><text xml:space="preserve" font-family="Courier" font-size="24.0" fill="#FEFFFF" transform="matrix(1.00, 0.00, -0.00, -1.00, 164.0, 33.0)">o</text></g></g><g><clipPath id="clip-35"><path d="M -2.2 74.3 L 352.2 74.3 L 352.2 123.7 L -2.2 123.7 Z M -2.2 74.3 "></path></clipPath><g clip-path="url(#clip-35)"><text xml:space="preserve" font-family="Avenir-Medium" font-size="24.0" fill="#5B5753" transform="matrix(1.00, 0.00, -0.00, -1.00, 6.0, 91.0)">R</text><text xml:space="preserve" font-family="Avenir-Medium" font-size="24.0" fill="#5B5753" transform="matrix(1.00, 0.00, -0.00, -1.00, 20.7, 91.0)">u</text><text xml:space="preserve" font-family="Avenir-Medium" font-size="24.0" fill="#5B5753" transform="matrix(1.00, 0.00, -0.00, -1.00, 34.0, 91.0)">n</text><text xml:space="preserve" font-family="Avenir-Medium" font-size="24.0" fill="#5B5753" transform="matrix(1.00, 0.00, -0.00, -1.00, 47.4, 91.0)"> </text><text xml:space="preserve" font-family="Avenir-Medium" font-size="24.0" fill="#5B5753" transform="matrix(1.00, 0.00, -0.00, -1.00, 54.0, 91.0)">f</text><text xml:space="preserve" font-family="Avenir-Medium" font-size="24.0" fill="#5B5753" transform="matrix(1.00, 0.00, -0.00, -1.00, 62.0, 91.0)">r</text><text xml:space="preserve" font-family="Avenir-Medium" font-size="24.0" fill="#5B5753" transform="matrix(1.00, 0.00, -0.00, -1.00, 70.5, 91.0)">o</text><text xml:space="preserve" font-family="Avenir-Medium" font-size="24.0" fill="#5B5753" transform="matrix(1.00, 0.00, -0.00, -1.00, 84.7, 91.0)">m</text><text xml:space="preserve" font-family="Avenir-Medium" font-size="24.0" fill="#5B5753" transform="matrix(1.00, 0.00, -0.00, -1.00, 105.2, 91.0)"> </text><text xml:space="preserve" font-family="Avenir-Medium" font-size="24.0" fill="#5B5753" transform="matrix(1.00, 0.00, -0.00, -1.00, 111.8, 91.0)">s</text><text xml:space="preserve" font-family="Avenir-Medium" font-size="24.0" fill="#5B5753" transform="matrix(1.00, 0.00, -0.00, -1.00, 122.5, 91.0)">o</text><text xml:space="preserve" font-family="Avenir-Medium" font-size="24.0" fill="#5B5753" transform="matrix(1.00, 0.00, -0.00, -1.00, 136.8, 91.0)">u</text><text xml:space="preserve" font-family="Avenir-Medium" font-size="24.0" fill="#5B5753" transform="matrix(1.00, 0.00, -0.00, -1.00, 150.1, 91.0)">r</text><text xml:space="preserve" font-family="Avenir-Medium" font-size="24.0" fill="#5B5753" transform="matrix(1.00, 0.00, -0.00, -1.00, 158.5, 91.0)">c</text><text xml:space="preserve" font-family="Avenir-Medium" font-size="24.0" fill="#5B5753" transform="matrix(1.00, 0.00, -0.00, -1.00, 170.1, 91.0)">e</text><text xml:space="preserve" font-family="Avenir-Medium" font-size="24.0" fill="#5B5753" transform="matrix(1.00, 0.00, -0.00, -1.00, 183.5, 91.0)"> </text><text xml:space="preserve" font-family="Avenir-Medium" font-size="24.0" fill="#5B5753" transform="matrix(1.00, 0.00, -0.00, -1.00, 190.1, 91.0)">(</text><text xml:space="preserve" font-family="Avenir-Medium" font-size="24.0" fill="#5B5753" transform="matrix(1.00, 0.00, -0.00, -1.00, 196.8, 91.0)">i</text><text xml:space="preserve" font-family="Avenir-Medium" font-size="24.0" fill="#5B5753" transform="matrix(1.00, 0.00, -0.00, -1.00, 202.6, 91.0)">n</text><text xml:space="preserve" font-family="Avenir-Medium" font-size="24.0" fill="#5B5753" transform="matrix(1.00, 0.00, -0.00, -1.00, 215.9, 91.0)"> </text><text xml:space="preserve" font-family="Avenir-Medium" font-size="24.0" fill="#5B5753" transform="matrix(1.00, 0.00, -0.00, -1.00, 222.6, 91.0)">c</text><text xml:space="preserve" font-family="Avenir-Medium" font-size="24.0" fill="#5B5753" transform="matrix(1.00, 0.00, -0.00, -1.00, 234.1, 91.0)">u</text><text xml:space="preserve" font-family="Avenir-Medium" font-size="24.0" fill="#5B5753" transform="matrix(1.00, 0.00, -0.00, -1.00, 247.5, 91.0)">r</text><text xml:space="preserve" font-family="Avenir-Medium" font-size="24.0" fill="#5B5753" transform="matrix(1.00, 0.00, -0.00, -1.00, 256.4, 91.0)">r</text><text xml:space="preserve" font-family="Avenir-Medium" font-size="24.0" fill="#5B5753" transform="matrix(1.00, 0.00, -0.00, -1.00, 264.8, 91.0)">e</text><text xml:space="preserve" font-family="Avenir-Medium" font-size="24.0" fill="#5B5753" transform="matrix(1.00, 0.00, -0.00, -1.00, 278.2, 91.0)">n</text><text xml:space="preserve" font-family="Avenir-Medium" font-size="24.0" fill="#5B5753" transform="matrix(1.00, 0.00, -0.00, -1.00, 291.5, 91.0)">t</text><text xml:space="preserve" font-family="Avenir-Medium" font-size="24.0" fill="#5B5753" transform="matrix(1.00, 0.00, -0.00, -1.00, 300.4, 91.0)"> </text><text xml:space="preserve" font-family="Avenir-Medium" font-size="24.0" fill="#5B5753" transform="matrix(1.00, 0.00, -0.00, -1.00, 307.1, 91.0)">d</text><text xml:space="preserve" font-family="Avenir-Medium" font-size="24.0" fill="#5B5753" transform="matrix(1.00, 0.00, -0.00, -1.00, 321.7, 91.0)">i</text><text xml:space="preserve" font-family="Avenir-Medium" font-size="24.0" fill="#5B5753" transform="matrix(1.00, 0.00, -0.00, -1.00, 327.5, 91.0)">r</text><text xml:space="preserve" font-family="Avenir-Medium" font-size="24.0" fill="#5B5753" transform="matrix(1.00, 0.00, -0.00, -1.00, 336.4, 91.0)">)</text></g></g></g></svg>