<?xml version="1.0" encoding="UTF-8" standalone="no"?><svg xmlns="http://www.w3.org/2000/svg" xmlns:xlink="http://www.w3.org/1999/xlink" clip-rule="evenodd" stroke-miterlimit="4.00" viewBox="0 0 228 28"><desc>SVG generated by Keynote</desc><defs></defs><g transform="matrix(1.00, 0.00, -0.00, -1.00, 0.0, 28.0)"><text xml:space="preserve" font-family="Avenir-Medium" font-size="19.7" fill="#9A958D" transform="matrix(1.00, 0.00, -0.00, -1.00, 0.0, 7.8)">•</text><text xml:space="preserve" font-family="Avenir-Medium" font-size="26.3" fill="#5B5753" transform="matrix(1.00, 0.00, -0.00, -1.00, 28.0, 6.0)">G</text><text xml:space="preserve" font-family="Avenir-Medium" font-size="26.3" fill="#5B5753" transform="matrix(1.00, 0.00, -0.00, -1.00, 49.0, 6.0)">l</text><text xml:space="preserve" font-family="Avenir-Medium" font-size="26.3" fill="#5B5753" transform="matrix(1.00, 0.00, -0.00, -1.00, 55.8, 6.0)">o</text><text xml:space="preserve" font-family="Avenir-Medium" font-size="26.3" fill="#5B5753" transform="matrix(1.00, 0.00, -0.00, -1.00, 72.0, 6.0)">b</text><text xml:space="preserve" font-family="Avenir-Medium" font-size="26.3" fill="#5B5753" transform="matrix(1.00, 0.00, -0.00, -1.00, 88.6, 6.0)">a</text><text xml:space="preserve" font-family="Avenir-Medium" font-size="26.3" fill="#5B5753" transform="matrix(1.00, 0.00, -0.00, -1.00, 102.8, 6.0)">l</text><text xml:space="preserve" font-family="Avenir-Medium" font-size="26.3" fill="#5B5753" transform="matrix(1.00, 0.00, -0.00, -1.00, 109.6, 6.0)"> </text><text xml:space="preserve" font-family="Avenir-Medium" font-size="26.3" fill="#5B5753" transform="matrix(1.00, 0.00, -0.00, -1.00, 117.5, 6.0)">v</text><text xml:space="preserve" font-family="Avenir-Medium" font-size="26.3" fill="#5B5753" transform="matrix(1.00, 0.00, -0.00, -1.00, 131.2, 6.0)">a</text><text xml:space="preserve" font-family="Avenir-Medium" font-size="26.3" fill="#5B5753" transform="matrix(1.00, 0.00, -0.00, -1.00, 145.4, 6.0)">r</text><text xml:space="preserve" font-family="Avenir-Medium" font-size="26.3" fill="#5B5753" transform="matrix(1.00, 0.00, -0.00, -1.00, 155.6, 6.0)">i</text><text xml:space="preserve" font-family="Avenir-Medium" font-size="26.3" fill="#5B5753" transform="matrix(1.00, 0.00, -0.00, -1.00, 162.5, 6.0)">a</text><text xml:space="preserve" font-family="Avenir-Medium" font-size="26.3" fill="#5B5753" transform="matrix(1.00, 0.00, -0.00, -1.00, 176.7, 6.0)">b</text><text xml:space="preserve" font-family="Avenir-Medium" font-size="26.3" fill="#5B5753" transform="matrix(1.00, 0.00, -0.00, -1.00, 193.3, 6.0)">l</text><text xml:space="preserve" font-family="Avenir-Medium" font-size="26.3" fill="#5B5753" transform="matrix(1.00, 0.00, -0.00, -1.00, 200.1, 6.0)">e</text><text xml:space="preserve" font-family="Avenir-Medium" font-size="26.3" fill="#5B5753" transform="matrix(1.00, 0.00, -0.00, -1.00, 215.3, 6.0)">s</text></g></svg>