<?xml version="1.0" encoding="UTF-8" standalone="no"?><svg xmlns="http://www.w3.org/2000/svg" xmlns:xlink="http://www.w3.org/1999/xlink" clip-rule="evenodd" stroke-miterlimit="4.00" viewBox="0 0 552 36"><desc>SVG generated by Keynote</desc><defs></defs><g transform="matrix(1.00, 0.00, -0.00, -1.00, 0.0, 36.0)"><text xml:space="preserve" font-family="Avenir-Medium" font-size="19.7" fill="#9A958D" transform="matrix(1.00, 0.00, -0.00, -1.00, 0.0, 11.7)">•</text><text xml:space="preserve" font-family="Avenir-Medium" font-size="26.3" fill="#5B5753" transform="matrix(1.00, 0.00, -0.00, -1.00, 28.0, 10.0)"> </text><text xml:space="preserve" font-family="Avenir-Medium" font-size="26.3" fill="#5B5753" transform="matrix(1.00, 0.00, -0.00, -1.00, 35.8, 10.0)">O</text><text xml:space="preserve" font-family="Avenir-Medium" font-size="26.3" fill="#5B5753" transform="matrix(1.00, 0.00, -0.00, -1.00, 58.3, 10.0)">b</text><text xml:space="preserve" font-family="Avenir-Medium" font-size="26.3" fill="#5B5753" transform="matrix(1.00, 0.00, -0.00, -1.00, 74.9, 10.0)">j</text><text xml:space="preserve" font-family="Avenir-Medium" font-size="26.3" fill="#5B5753" transform="matrix(1.00, 0.00, -0.00, -1.00, 81.7, 10.0)">e</text><text xml:space="preserve" font-family="Avenir-Medium" font-size="26.3" fill="#5B5753" transform="matrix(1.00, 0.00, -0.00, -1.00, 96.9, 10.0)">c</text><text xml:space="preserve" font-family="Avenir-Medium" font-size="26.3" fill="#5B5753" transform="matrix(1.00, 0.00, -0.00, -1.00, 110.1, 10.0)">t</text><text xml:space="preserve" font-family="Avenir-Medium" font-size="26.3" fill="#5B5753" transform="matrix(1.00, 0.00, -0.00, -1.00, 120.4, 10.0)">-</text><text xml:space="preserve" font-family="Avenir-Medium" font-size="26.3" fill="#5B5753" transform="matrix(1.00, 0.00, -0.00, -1.00, 129.2, 10.0)">o</text><text xml:space="preserve" font-family="Avenir-Medium" font-size="26.3" fill="#5B5753" transform="matrix(1.00, 0.00, -0.00, -1.00, 145.4, 10.0)">r</text><text xml:space="preserve" font-family="Avenir-Medium" font-size="26.3" fill="#5B5753" transform="matrix(1.00, 0.00, -0.00, -1.00, 155.6, 10.0)">i</text><text xml:space="preserve" font-family="Avenir-Medium" font-size="26.3" fill="#5B5753" transform="matrix(1.00, 0.00, -0.00, -1.00, 162.5, 10.0)">e</text><text xml:space="preserve" font-family="Avenir-Medium" font-size="26.3" fill="#5B5753" transform="matrix(1.00, 0.00, -0.00, -1.00, 177.6, 10.0)">n</text><text xml:space="preserve" font-family="Avenir-Medium" font-size="26.3" fill="#5B5753" transform="matrix(1.00, 0.00, -0.00, -1.00, 192.8, 10.0)">t</text><text xml:space="preserve" font-family="Avenir-Medium" font-size="26.3" fill="#5B5753" transform="matrix(1.00, 0.00, -0.00, -1.00, 203.1, 10.0)">e</text><text xml:space="preserve" font-family="Avenir-Medium" font-size="26.3" fill="#5B5753" transform="matrix(1.00, 0.00, -0.00, -1.00, 218.2, 10.0)">d</text><text xml:space="preserve" font-family="Avenir-Medium" font-size="26.3" fill="#5B5753" transform="matrix(1.00, 0.00, -0.00, -1.00, 234.8, 10.0)"> </text><text xml:space="preserve" font-family="Avenir-Medium" font-size="26.3" fill="#5B5753" transform="matrix(1.00, 0.00, -0.00, -1.00, 242.7, 10.0)">P</text><text xml:space="preserve" font-family="Avenir-Medium" font-size="26.3" fill="#5B5753" transform="matrix(1.00, 0.00, -0.00, -1.00, 258.8, 10.0)">r</text><text xml:space="preserve" font-family="Avenir-Medium" font-size="26.3" fill="#5B5753" transform="matrix(1.00, 0.00, -0.00, -1.00, 268.6, 10.0)">o</text><text xml:space="preserve" font-family="Avenir-Medium" font-size="26.3" fill="#5B5753" transform="matrix(1.00, 0.00, -0.00, -1.00, 284.8, 10.0)">c</text><text xml:space="preserve" font-family="Avenir-Medium" font-size="26.3" fill="#5B5753" transform="matrix(1.00, 0.00, -0.00, -1.00, 298.0, 10.0)">e</text><text xml:space="preserve" font-family="Avenir-Medium" font-size="26.3" fill="#5B5753" transform="matrix(1.00, 0.00, -0.00, -1.00, 313.1, 10.0)">d</text><text xml:space="preserve" font-family="Avenir-Medium" font-size="26.3" fill="#5B5753" transform="matrix(1.00, 0.00, -0.00, -1.00, 329.7, 10.0)">u</text><text xml:space="preserve" font-family="Avenir-Medium" font-size="26.3" fill="#5B5753" transform="matrix(1.00, 0.00, -0.00, -1.00, 344.9, 10.0)">r</text><text xml:space="preserve" font-family="Avenir-Medium" font-size="26.3" fill="#5B5753" transform="matrix(1.00, 0.00, -0.00, -1.00, 355.2, 10.0)">a</text><text xml:space="preserve" font-family="Avenir-Medium" font-size="26.3" fill="#5B5753" transform="matrix(1.00, 0.00, -0.00, -1.00, 369.3, 10.0)">l</text><text xml:space="preserve" font-family="Avenir-Medium" font-size="26.3" fill="#5B5753" transform="matrix(1.00, 0.00, -0.00, -1.00, 376.2, 10.0)"> </text><text xml:space="preserve" font-family="Avenir-Medium" font-size="26.3" fill="#5B5753" transform="matrix(1.00, 0.00, -0.00, -1.00, 384.0, 10.0)">p</text><text xml:space="preserve" font-family="Avenir-Medium" font-size="26.3" fill="#5B5753" transform="matrix(1.00, 0.00, -0.00, -1.00, 400.6, 10.0)">r</text><text xml:space="preserve" font-family="Avenir-Medium" font-size="26.3" fill="#5B5753" transform="matrix(1.00, 0.00, -0.00, -1.00, 410.4, 10.0)">o</text><text xml:space="preserve" font-family="Avenir-Medium" font-size="26.3" fill="#5B5753" transform="matrix(1.00, 0.00, -0.00, -1.00, 426.6, 10.0)">g</text><text xml:space="preserve" font-family="Avenir-Medium" font-size="26.3" fill="#5B5753" transform="matrix(1.00, 0.00, -0.00, -1.00, 443.2, 10.0)">r</text><text xml:space="preserve" font-family="Avenir-Medium" font-size="26.3" fill="#5B5753" transform="matrix(1.00, 0.00, -0.00, -1.00, 453.5, 10.0)">a</text><text xml:space="preserve" font-family="Avenir-Medium" font-size="26.3" fill="#5B5753" transform="matrix(1.00, 0.00, -0.00, -1.00, 467.6, 10.0)">m</text><text xml:space="preserve" font-family="Avenir-Medium" font-size="26.3" fill="#5B5753" transform="matrix(1.00, 0.00, -0.00, -1.00, 490.6, 10.0)">m</text><text xml:space="preserve" font-family="Avenir-Medium" font-size="26.3" fill="#5B5753" transform="matrix(1.00, 0.00, -0.00, -1.00, 513.6, 10.0)">i</text><text xml:space="preserve" font-family="Avenir-Medium" font-size="26.3" fill="#5B5753" transform="matrix(1.00, 0.00, -0.00, -1.00, 520.4, 10.0)">n</text><text xml:space="preserve" font-family="Avenir-Medium" font-size="26.3" fill="#5B5753" transform="matrix(1.00, 0.00, -0.00, -1.00, 535.6, 10.0)">g</text><g><clipPath id="clip-12"><path d="M 27.2 14.1 L 235.0 14.1 L 235.0 17.7 L 27.2 17.7 Z M 27.2 14.1 "></path></clipPath><g clip-path="url(#clip-12)"><path d="M 32.2 24.1 L 239.0 24.1 " fill="none" stroke="#5B5753" stroke-width="1.58" stroke-miterlimit="0.00" transform="matrix(1.00, 0.00, 0.00, -1.00, -4.0, 40.0)"></path></g></g></g></svg>