<?xml version="1.0" encoding="UTF-8" standalone="no"?><svg xmlns="http://www.w3.org/2000/svg" xmlns:xlink="http://www.w3.org/1999/xlink" clip-rule="evenodd" stroke-miterlimit="4.00" viewBox="0 0 1024 768"><desc>SVG generated by Keynote</desc><defs></defs><g transform="matrix(1.00, 0.00, -0.00, -1.00, 0.0, 768.0)"><g><clipPath id="clip-15"><path d="M 0.0 768.0 L 1024.0 768.0 L 1024.0 0.0 L 0.0 0.0 Z M 0.0 768.0 "></path></clipPath><g clip-path="url(#clip-15)"><image xlink:href="../../76585095-441F-4A8D-8AF4-2D51A66723B6/assets/D52BF74205EDDA1E3AD886EF31563845.jpeg" width="1024.00" height="768.00" transform="matrix(1.00, 0.00, -0.00, -1.00, 0.0, 768.0)"></image></g></g><text xml:space="preserve" font-family="Futura-Medium" font-size="39.6" fill="#5B5753" transform="matrix(1.00, 0.00, -0.00, -1.00, 313.0, 677.0)">W</text><text xml:space="preserve" font-family="Futura-Medium" font-size="39.6" fill="#5B5753" transform="matrix(1.00, 0.00, -0.00, -1.00, 355.8, 677.0)">H</text><text xml:space="preserve" font-family="Futura-Medium" font-size="39.6" fill="#5B5753" transform="matrix(1.00, 0.00, -0.00, -1.00, 385.6, 677.0)">A</text><text xml:space="preserve" font-family="Futura-Medium" font-size="39.6" fill="#5B5753" transform="matrix(1.00, 0.00, -0.00, -1.00, 414.1, 677.0)">T</text><text xml:space="preserve" font-family="Futura-Medium" font-size="39.6" fill="#5B5753" transform="matrix(1.00, 0.00, -0.00, -1.00, 434.0, 677.0)"> </text><text xml:space="preserve" font-family="Futura-Medium" font-size="39.6" fill="#5B5753" transform="matrix(1.00, 0.00, -0.00, -1.00, 447.0, 677.0)">W</text><text xml:space="preserve" font-family="Futura-Medium" font-size="39.6" fill="#5B5753" transform="matrix(1.00, 0.00, -0.00, -1.00, 489.7, 677.0)">E</text><text xml:space="preserve" font-family="Futura-Medium" font-size="39.6" fill="#5B5753" transform="matrix(1.00, 0.00, -0.00, -1.00, 512.9, 677.0)">N</text><text xml:space="preserve" font-family="Futura-Medium" font-size="39.6" fill="#5B5753" transform="matrix(1.00, 0.00, -0.00, -1.00, 547.2, 677.0)">T</text><text xml:space="preserve" font-family="Futura-Medium" font-size="39.6" fill="#5B5753" transform="matrix(1.00, 0.00, -0.00, -1.00, 567.1, 677.0)"> </text><text xml:space="preserve" font-family="Futura-Medium" font-size="39.6" fill="#5B5753" transform="matrix(1.00, 0.00, -0.00, -1.00, 580.1, 677.0)">W</text><text xml:space="preserve" font-family="Futura-Medium" font-size="39.6" fill="#5B5753" transform="matrix(1.00, 0.00, -0.00, -1.00, 622.9, 677.0)">E</text><text xml:space="preserve" font-family="Futura-Medium" font-size="39.6" fill="#5B5753" transform="matrix(1.00, 0.00, -0.00, -1.00, 646.1, 677.0)">I</text><text xml:space="preserve" font-family="Futura-Medium" font-size="39.6" fill="#5B5753" transform="matrix(1.00, 0.00, -0.00, -1.00, 658.5, 677.0)">R</text><text xml:space="preserve" font-family="Futura-Medium" font-size="39.6" fill="#5B5753" transform="matrix(1.00, 0.00, -0.00, -1.00, 683.2, 677.0)">D</text><text xml:space="preserve" font-family="Avenir-Medium" font-size="19.7" fill="#9A958D" transform="matrix(1.00, 0.00, -0.00, -1.00, 57.0, 551.7)">•</text><text xml:space="preserve" font-family="Avenir-Medium" font-size="26.3" fill="#5B5753" transform="matrix(1.00, 0.00, -0.00, -1.00, 85.0, 550.0)"> </text><text xml:space="preserve" font-family="Avenir-Medium" font-size="26.3" fill="#5B5753" transform="matrix(1.00, 0.00, -0.00, -1.00, 92.8, 550.0)">O</text><text xml:space="preserve" font-family="Avenir-Medium" font-size="26.3" fill="#5B5753" transform="matrix(1.00, 0.00, -0.00, -1.00, 115.3, 550.0)">b</text><text xml:space="preserve" font-family="Avenir-Medium" font-size="26.3" fill="#5B5753" transform="matrix(1.00, 0.00, -0.00, -1.00, 131.9, 550.0)">j</text><text xml:space="preserve" font-family="Avenir-Medium" font-size="26.3" fill="#5B5753" transform="matrix(1.00, 0.00, -0.00, -1.00, 138.7, 550.0)">e</text><text xml:space="preserve" font-family="Avenir-Medium" font-size="26.3" fill="#5B5753" transform="matrix(1.00, 0.00, -0.00, -1.00, 153.9, 550.0)">c</text><text xml:space="preserve" font-family="Avenir-Medium" font-size="26.3" fill="#5B5753" transform="matrix(1.00, 0.00, -0.00, -1.00, 167.1, 550.0)">t</text><text xml:space="preserve" font-family="Avenir-Medium" font-size="26.3" fill="#5B5753" transform="matrix(1.00, 0.00, -0.00, -1.00, 177.4, 550.0)">-</text><text xml:space="preserve" font-family="Avenir-Medium" font-size="26.3" fill="#5B5753" transform="matrix(1.00, 0.00, -0.00, -1.00, 186.2, 550.0)">o</text><text xml:space="preserve" font-family="Avenir-Medium" font-size="26.3" fill="#5B5753" transform="matrix(1.00, 0.00, -0.00, -1.00, 202.4, 550.0)">r</text><text xml:space="preserve" font-family="Avenir-Medium" font-size="26.3" fill="#5B5753" transform="matrix(1.00, 0.00, -0.00, -1.00, 212.6, 550.0)">i</text><text xml:space="preserve" font-family="Avenir-Medium" font-size="26.3" fill="#5B5753" transform="matrix(1.00, 0.00, -0.00, -1.00, 219.5, 550.0)">e</text><text xml:space="preserve" font-family="Avenir-Medium" font-size="26.3" fill="#5B5753" transform="matrix(1.00, 0.00, -0.00, -1.00, 234.6, 550.0)">n</text><text xml:space="preserve" font-family="Avenir-Medium" font-size="26.3" fill="#5B5753" transform="matrix(1.00, 0.00, -0.00, -1.00, 249.8, 550.0)">t</text><text xml:space="preserve" font-family="Avenir-Medium" font-size="26.3" fill="#5B5753" transform="matrix(1.00, 0.00, -0.00, -1.00, 260.1, 550.0)">e</text><text xml:space="preserve" font-family="Avenir-Medium" font-size="26.3" fill="#5B5753" transform="matrix(1.00, 0.00, -0.00, -1.00, 275.2, 550.0)">d</text><text xml:space="preserve" font-family="Avenir-Medium" font-size="26.3" fill="#5B5753" transform="matrix(1.00, 0.00, -0.00, -1.00, 291.8, 550.0)"> </text><text xml:space="preserve" font-family="Avenir-Medium" font-size="26.3" fill="#5B5753" transform="matrix(1.00, 0.00, -0.00, -1.00, 299.7, 550.0)">P</text><text xml:space="preserve" font-family="Avenir-Medium" font-size="26.3" fill="#5B5753" transform="matrix(1.00, 0.00, -0.00, -1.00, 315.8, 550.0)">r</text><text xml:space="preserve" font-family="Avenir-Medium" font-size="26.3" fill="#5B5753" transform="matrix(1.00, 0.00, -0.00, -1.00, 325.6, 550.0)">o</text><text xml:space="preserve" font-family="Avenir-Medium" font-size="26.3" fill="#5B5753" transform="matrix(1.00, 0.00, -0.00, -1.00, 341.8, 550.0)">c</text><text xml:space="preserve" font-family="Avenir-Medium" font-size="26.3" fill="#5B5753" transform="matrix(1.00, 0.00, -0.00, -1.00, 355.0, 550.0)">e</text><text xml:space="preserve" font-family="Avenir-Medium" font-size="26.3" fill="#5B5753" transform="matrix(1.00, 0.00, -0.00, -1.00, 370.1, 550.0)">d</text><text xml:space="preserve" font-family="Avenir-Medium" font-size="26.3" fill="#5B5753" transform="matrix(1.00, 0.00, -0.00, -1.00, 386.7, 550.0)">u</text><text xml:space="preserve" font-family="Avenir-Medium" font-size="26.3" fill="#5B5753" transform="matrix(1.00, 0.00, -0.00, -1.00, 401.9, 550.0)">r</text><text xml:space="preserve" font-family="Avenir-Medium" font-size="26.3" fill="#5B5753" transform="matrix(1.00, 0.00, -0.00, -1.00, 412.2, 550.0)">a</text><text xml:space="preserve" font-family="Avenir-Medium" font-size="26.3" fill="#5B5753" transform="matrix(1.00, 0.00, -0.00, -1.00, 426.3, 550.0)">l</text><text xml:space="preserve" font-family="Avenir-Medium" font-size="26.3" fill="#5B5753" transform="matrix(1.00, 0.00, -0.00, -1.00, 433.2, 550.0)"> </text><text xml:space="preserve" font-family="Avenir-Medium" font-size="26.3" fill="#5B5753" transform="matrix(1.00, 0.00, -0.00, -1.00, 441.0, 550.0)">p</text><text xml:space="preserve" font-family="Avenir-Medium" font-size="26.3" fill="#5B5753" transform="matrix(1.00, 0.00, -0.00, -1.00, 457.6, 550.0)">r</text><text xml:space="preserve" font-family="Avenir-Medium" font-size="26.3" fill="#5B5753" transform="matrix(1.00, 0.00, -0.00, -1.00, 467.4, 550.0)">o</text><text xml:space="preserve" font-family="Avenir-Medium" font-size="26.3" fill="#5B5753" transform="matrix(1.00, 0.00, -0.00, -1.00, 483.6, 550.0)">g</text><text xml:space="preserve" font-family="Avenir-Medium" font-size="26.3" fill="#5B5753" transform="matrix(1.00, 0.00, -0.00, -1.00, 500.2, 550.0)">r</text><text xml:space="preserve" font-family="Avenir-Medium" font-size="26.3" fill="#5B5753" transform="matrix(1.00, 0.00, -0.00, -1.00, 510.5, 550.0)">a</text><text xml:space="preserve" font-family="Avenir-Medium" font-size="26.3" fill="#5B5753" transform="matrix(1.00, 0.00, -0.00, -1.00, 524.6, 550.0)">m</text><text xml:space="preserve" font-family="Avenir-Medium" font-size="26.3" fill="#5B5753" transform="matrix(1.00, 0.00, -0.00, -1.00, 547.6, 550.0)">m</text><text xml:space="preserve" font-family="Avenir-Medium" font-size="26.3" fill="#5B5753" transform="matrix(1.00, 0.00, -0.00, -1.00, 570.6, 550.0)">i</text><text xml:space="preserve" font-family="Avenir-Medium" font-size="26.3" fill="#5B5753" transform="matrix(1.00, 0.00, -0.00, -1.00, 577.4, 550.0)">n</text><text xml:space="preserve" font-family="Avenir-Medium" font-size="26.3" fill="#5B5753" transform="matrix(1.00, 0.00, -0.00, -1.00, 592.6, 550.0)">g</text><g><clipPath id="clip-16"><path d="M 84.2 554.1 L 292.0 554.1 L 292.0 557.7 L 84.2 557.7 Z M 84.2 554.1 "></path></clipPath><g clip-path="url(#clip-16)"><path d="M 32.2 24.1 L 239.0 24.1 " fill="none" stroke="#5B5753" stroke-width="1.58" stroke-miterlimit="0.00" transform="matrix(1.00, 0.00, 0.00, -1.00, 53.0, 580.0)"></path></g></g><text xml:space="preserve" font-family="Avenir-Medium" font-size="19.7" fill="#9A958D" transform="matrix(1.00, 0.00, -0.00, -1.00, 87.0, 483.8)">•</text><text xml:space="preserve" font-family="Avenir-Medium" font-size="26.3" fill="#5B5753" transform="matrix(1.00, 0.00, -0.00, -1.00, 115.0, 482.0)">C</text><text xml:space="preserve" font-family="Avenir-Medium" font-size="26.3" fill="#5B5753" transform="matrix(1.00, 0.00, -0.00, -1.00, 134.1, 482.0)">l</text><text xml:space="preserve" font-family="Avenir-Medium" font-size="26.3" fill="#5B5753" transform="matrix(1.00, 0.00, -0.00, -1.00, 140.9, 482.0)">a</text><text xml:space="preserve" font-family="Avenir-Medium" font-size="26.3" fill="#5B5753" transform="matrix(1.00, 0.00, -0.00, -1.00, 155.1, 482.0)">s</text><text xml:space="preserve" font-family="Avenir-Medium" font-size="26.3" fill="#5B5753" transform="matrix(1.00, 0.00, -0.00, -1.00, 167.3, 482.0)">s</text><text xml:space="preserve" font-family="Avenir-Medium" font-size="26.3" fill="#5B5753" transform="matrix(1.00, 0.00, -0.00, -1.00, 179.5, 482.0)">e</text><text xml:space="preserve" font-family="Avenir-Medium" font-size="26.3" fill="#5B5753" transform="matrix(1.00, 0.00, -0.00, -1.00, 194.7, 482.0)">s</text><text xml:space="preserve" font-family="Avenir-Medium" font-size="26.3" fill="#5B5753" transform="matrix(1.00, 0.00, -0.00, -1.00, 206.9, 482.0)"> </text><text xml:space="preserve" font-family="Avenir-Medium" font-size="26.3" fill="#5B5753" transform="matrix(1.00, 0.00, -0.00, -1.00, 214.7, 482.0)">S</text><text xml:space="preserve" font-family="Avenir-Medium" font-size="26.3" fill="#5B5753" transform="matrix(1.00, 0.00, -0.00, -1.00, 229.9, 482.0)">t</text><text xml:space="preserve" font-family="Avenir-Medium" font-size="26.3" fill="#5B5753" transform="matrix(1.00, 0.00, -0.00, -1.00, 240.2, 482.0)">r</text><text xml:space="preserve" font-family="Avenir-Medium" font-size="26.3" fill="#5B5753" transform="matrix(1.00, 0.00, -0.00, -1.00, 250.4, 482.0)">u</text><text xml:space="preserve" font-family="Avenir-Medium" font-size="26.3" fill="#5B5753" transform="matrix(1.00, 0.00, -0.00, -1.00, 265.6, 482.0)">c</text><text xml:space="preserve" font-family="Avenir-Medium" font-size="26.3" fill="#5B5753" transform="matrix(1.00, 0.00, -0.00, -1.00, 278.8, 482.0)">t</text><text xml:space="preserve" font-family="Avenir-Medium" font-size="26.3" fill="#5B5753" transform="matrix(1.00, 0.00, -0.00, -1.00, 289.1, 482.0)">s</text><g><clipPath id="clip-17"><path d="M 114.2 486.1 L 207.1 486.1 L 207.1 489.7 L 114.2 489.7 Z M 114.2 486.1 "></path></clipPath><g clip-path="url(#clip-17)"><path d="M 62.2 92.1 L 154.1 92.1 " fill="none" stroke="#5B5753" stroke-width="1.58" stroke-miterlimit="0.00" transform="matrix(1.00, 0.00, 0.00, -1.00, 53.0, 580.0)"></path></g></g><text xml:space="preserve" font-family="Avenir-Medium" font-size="19.7" fill="#9A958D" transform="matrix(1.00, 0.00, -0.00, -1.00, 87.0, 415.8)">•</text><text xml:space="preserve" font-family="Avenir-Medium" font-size="26.3" fill="#5B5753" transform="matrix(1.00, 0.00, -0.00, -1.00, 115.0, 414.0)">P</text><text xml:space="preserve" font-family="Avenir-Medium" font-size="26.3" fill="#5B5753" transform="matrix(1.00, 0.00, -0.00, -1.00, 131.1, 414.0)">a</text><text xml:space="preserve" font-family="Avenir-Medium" font-size="26.3" fill="#5B5753" transform="matrix(1.00, 0.00, -0.00, -1.00, 145.3, 414.0)">c</text><text xml:space="preserve" font-family="Avenir-Medium" font-size="26.3" fill="#5B5753" transform="matrix(1.00, 0.00, -0.00, -1.00, 158.5, 414.0)">k</text><text xml:space="preserve" font-family="Avenir-Medium" font-size="26.3" fill="#5B5753" transform="matrix(1.00, 0.00, -0.00, -1.00, 172.7, 414.0)">a</text><text xml:space="preserve" font-family="Avenir-Medium" font-size="26.3" fill="#5B5753" transform="matrix(1.00, 0.00, -0.00, -1.00, 186.9, 414.0)">g</text><text xml:space="preserve" font-family="Avenir-Medium" font-size="26.3" fill="#5B5753" transform="matrix(1.00, 0.00, -0.00, -1.00, 203.5, 414.0)">e</text><text xml:space="preserve" font-family="Avenir-Medium" font-size="26.3" fill="#5B5753" transform="matrix(1.00, 0.00, -0.00, -1.00, 218.7, 414.0)">s</text><text xml:space="preserve" font-family="Avenir-Medium" font-size="19.7" fill="#9A958D" transform="matrix(1.00, 0.00, -0.00, -1.00, 57.0, 347.8)">•</text><text xml:space="preserve" font-family="Avenir-Medium" font-size="26.3" fill="#5B5753" transform="matrix(1.00, 0.00, -0.00, -1.00, 85.0, 346.0)">G</text><text xml:space="preserve" font-family="Avenir-Medium" font-size="26.3" fill="#5B5753" transform="matrix(1.00, 0.00, -0.00, -1.00, 106.0, 346.0)">l</text><text xml:space="preserve" font-family="Avenir-Medium" font-size="26.3" fill="#5B5753" transform="matrix(1.00, 0.00, -0.00, -1.00, 112.8, 346.0)">o</text><text xml:space="preserve" font-family="Avenir-Medium" font-size="26.3" fill="#5B5753" transform="matrix(1.00, 0.00, -0.00, -1.00, 129.0, 346.0)">b</text><text xml:space="preserve" font-family="Avenir-Medium" font-size="26.3" fill="#5B5753" transform="matrix(1.00, 0.00, -0.00, -1.00, 145.6, 346.0)">a</text><text xml:space="preserve" font-family="Avenir-Medium" font-size="26.3" fill="#5B5753" transform="matrix(1.00, 0.00, -0.00, -1.00, 159.8, 346.0)">l</text><text xml:space="preserve" font-family="Avenir-Medium" font-size="26.3" fill="#5B5753" transform="matrix(1.00, 0.00, -0.00, -1.00, 166.6, 346.0)"> </text><text xml:space="preserve" font-family="Avenir-Medium" font-size="26.3" fill="#5B5753" transform="matrix(1.00, 0.00, -0.00, -1.00, 174.5, 346.0)">v</text><text xml:space="preserve" font-family="Avenir-Medium" font-size="26.3" fill="#5B5753" transform="matrix(1.00, 0.00, -0.00, -1.00, 188.2, 346.0)">a</text><text xml:space="preserve" font-family="Avenir-Medium" font-size="26.3" fill="#5B5753" transform="matrix(1.00, 0.00, -0.00, -1.00, 202.4, 346.0)">r</text><text xml:space="preserve" font-family="Avenir-Medium" font-size="26.3" fill="#5B5753" transform="matrix(1.00, 0.00, -0.00, -1.00, 212.6, 346.0)">i</text><text xml:space="preserve" font-family="Avenir-Medium" font-size="26.3" fill="#5B5753" transform="matrix(1.00, 0.00, -0.00, -1.00, 219.5, 346.0)">a</text><text xml:space="preserve" font-family="Avenir-Medium" font-size="26.3" fill="#5B5753" transform="matrix(1.00, 0.00, -0.00, -1.00, 233.7, 346.0)">b</text><text xml:space="preserve" font-family="Avenir-Medium" font-size="26.3" fill="#5B5753" transform="matrix(1.00, 0.00, -0.00, -1.00, 250.3, 346.0)">l</text><text xml:space="preserve" font-family="Avenir-Medium" font-size="26.3" fill="#5B5753" transform="matrix(1.00, 0.00, -0.00, -1.00, 257.1, 346.0)">e</text><text xml:space="preserve" font-family="Avenir-Medium" font-size="26.3" fill="#5B5753" transform="matrix(1.00, 0.00, -0.00, -1.00, 272.3, 346.0)">s</text><text xml:space="preserve" font-family="Avenir-Medium" font-size="19.7" fill="#9A958D" transform="matrix(1.00, 0.00, -0.00, -1.00, 57.0, 279.9)">•</text><text xml:space="preserve" font-family="Avenir-Medium" font-size="26.3" fill="#5B5753" transform="matrix(1.00, 0.00, -0.00, -1.00, 85.0, 278.0)">T</text><text xml:space="preserve" font-family="Avenir-Medium" font-size="26.3" fill="#5B5753" transform="matrix(1.00, 0.00, -0.00, -1.00, 97.7, 278.0)">y</text><text xml:space="preserve" font-family="Avenir-Medium" font-size="26.3" fill="#5B5753" transform="matrix(1.00, 0.00, -0.00, -1.00, 111.4, 278.0)">p</text><text xml:space="preserve" font-family="Avenir-Medium" font-size="26.3" fill="#5B5753" transform="matrix(1.00, 0.00, -0.00, -1.00, 128.0, 278.0)">e</text><text xml:space="preserve" font-family="Avenir-Medium" font-size="26.3" fill="#5B5753" transform="matrix(1.00, 0.00, -0.00, -1.00, 143.2, 278.0)"> </text><text xml:space="preserve" font-family="Avenir-Medium" font-size="26.3" fill="#5B5753" transform="matrix(1.00, 0.00, -0.00, -1.00, 151.0, 278.0)">d</text><text xml:space="preserve" font-family="Avenir-Medium" font-size="26.3" fill="#5B5753" transform="matrix(1.00, 0.00, -0.00, -1.00, 167.6, 278.0)">e</text><text xml:space="preserve" font-family="Avenir-Medium" font-size="26.3" fill="#5B5753" transform="matrix(1.00, 0.00, -0.00, -1.00, 182.8, 278.0)">c</text><text xml:space="preserve" font-family="Avenir-Medium" font-size="26.3" fill="#5B5753" transform="matrix(1.00, 0.00, -0.00, -1.00, 196.0, 278.0)">l</text><text xml:space="preserve" font-family="Avenir-Medium" font-size="26.3" fill="#5B5753" transform="matrix(1.00, 0.00, -0.00, -1.00, 202.8, 278.0)">a</text><text xml:space="preserve" font-family="Avenir-Medium" font-size="26.3" fill="#5B5753" transform="matrix(1.00, 0.00, -0.00, -1.00, 217.0, 278.0)">r</text><text xml:space="preserve" font-family="Avenir-Medium" font-size="26.3" fill="#5B5753" transform="matrix(1.00, 0.00, -0.00, -1.00, 227.3, 278.0)">a</text><text xml:space="preserve" font-family="Avenir-Medium" font-size="26.3" fill="#5B5753" transform="matrix(1.00, 0.00, -0.00, -1.00, 241.5, 278.0)">t</text><text xml:space="preserve" font-family="Avenir-Medium" font-size="26.3" fill="#5B5753" transform="matrix(1.00, 0.00, -0.00, -1.00, 251.7, 278.0)">i</text><text xml:space="preserve" font-family="Avenir-Medium" font-size="26.3" fill="#5B5753" transform="matrix(1.00, 0.00, -0.00, -1.00, 258.6, 278.0)">o</text><text xml:space="preserve" font-family="Avenir-Medium" font-size="26.3" fill="#5B5753" transform="matrix(1.00, 0.00, -0.00, -1.00, 274.7, 278.0)">n</text><text xml:space="preserve" font-family="Avenir-Medium" font-size="26.3" fill="#5B5753" transform="matrix(1.00, 0.00, -0.00, -1.00, 289.9, 278.0)"> </text><text xml:space="preserve" font-family="Avenir-Medium" font-size="26.3" fill="#5B5753" transform="matrix(1.00, 0.00, -0.00, -1.00, 297.7, 278.0)">a</text><text xml:space="preserve" font-family="Avenir-Medium" font-size="26.3" fill="#5B5753" transform="matrix(1.00, 0.00, -0.00, -1.00, 311.9, 278.0)">f</text><text xml:space="preserve" font-family="Avenir-Medium" font-size="26.3" fill="#5B5753" transform="matrix(1.00, 0.00, -0.00, -1.00, 321.2, 278.0)">t</text><text xml:space="preserve" font-family="Avenir-Medium" font-size="26.3" fill="#5B5753" transform="matrix(1.00, 0.00, -0.00, -1.00, 331.5, 278.0)">e</text><text xml:space="preserve" font-family="Avenir-Medium" font-size="26.3" fill="#5B5753" transform="matrix(1.00, 0.00, -0.00, -1.00, 346.6, 278.0)">r</text><text xml:space="preserve" font-family="Avenir-Medium" font-size="26.3" fill="#5B5753" transform="matrix(1.00, 0.00, -0.00, -1.00, 356.9, 278.0)"> </text><text xml:space="preserve" font-family="Avenir-Medium" font-size="26.3" fill="#5B5753" transform="matrix(1.00, 0.00, -0.00, -1.00, 364.8, 278.0)"> </text><text xml:space="preserve" font-family="Avenir-Medium" font-size="26.3" fill="#5B5753" transform="matrix(1.00, 0.00, -0.00, -1.00, 372.6, 278.0)">v</text><text xml:space="preserve" font-family="Avenir-Medium" font-size="26.3" fill="#5B5753" transform="matrix(1.00, 0.00, -0.00, -1.00, 386.3, 278.0)">a</text><text xml:space="preserve" font-family="Avenir-Medium" font-size="26.3" fill="#5B5753" transform="matrix(1.00, 0.00, -0.00, -1.00, 400.5, 278.0)">r</text><text xml:space="preserve" font-family="Avenir-Medium" font-size="26.3" fill="#5B5753" transform="matrix(1.00, 0.00, -0.00, -1.00, 410.7, 278.0)">i</text><text xml:space="preserve" font-family="Avenir-Medium" font-size="26.3" fill="#5B5753" transform="matrix(1.00, 0.00, -0.00, -1.00, 417.6, 278.0)">a</text><text xml:space="preserve" font-family="Avenir-Medium" font-size="26.3" fill="#5B5753" transform="matrix(1.00, 0.00, -0.00, -1.00, 431.8, 278.0)">b</text><text xml:space="preserve" font-family="Avenir-Medium" font-size="26.3" fill="#5B5753" transform="matrix(1.00, 0.00, -0.00, -1.00, 448.4, 278.0)">l</text><text xml:space="preserve" font-family="Avenir-Medium" font-size="26.3" fill="#5B5753" transform="matrix(1.00, 0.00, -0.00, -1.00, 455.2, 278.0)">e</text><text xml:space="preserve" font-family="Avenir-Medium" font-size="26.3" fill="#5B5753" transform="matrix(1.00, 0.00, -0.00, -1.00, 470.4, 278.0)"> </text><text xml:space="preserve" font-family="Avenir-Medium" font-size="26.3" fill="#5B5753" transform="matrix(1.00, 0.00, -0.00, -1.00, 478.2, 278.0)">n</text><text xml:space="preserve" font-family="Avenir-Medium" font-size="26.3" fill="#5B5753" transform="matrix(1.00, 0.00, -0.00, -1.00, 493.4, 278.0)">a</text><text xml:space="preserve" font-family="Avenir-Medium" font-size="26.3" fill="#5B5753" transform="matrix(1.00, 0.00, -0.00, -1.00, 507.6, 278.0)">m</text><text xml:space="preserve" font-family="Avenir-Medium" font-size="26.3" fill="#5B5753" transform="matrix(1.00, 0.00, -0.00, -1.00, 530.5, 278.0)">e</text><text xml:space="preserve" font-family="Courier" font-size="11.3" fill="#9A958D" transform="matrix(1.00, 0.00, -0.00, -1.00, 87.0, 223.0)">•</text><text xml:space="preserve" font-family="Courier" font-size="15.0" fill="#5B5753" transform="matrix(1.00, 0.00, -0.00, -1.00, 115.0, 222.0)">M</text><text xml:space="preserve" font-family="Courier" font-size="15.0" fill="#5B5753" transform="matrix(1.00, 0.00, -0.00, -1.00, 124.3, 222.0)">y</text><text xml:space="preserve" font-family="Courier" font-size="15.0" fill="#5B5753" transform="matrix(1.00, 0.00, -0.00, -1.00, 133.7, 222.0)">C</text><text xml:space="preserve" font-family="Courier" font-size="15.0" fill="#5B5753" transform="matrix(1.00, 0.00, -0.00, -1.00, 143.0, 222.0)">l</text><text xml:space="preserve" font-family="Courier" font-size="15.0" fill="#5B5753" transform="matrix(1.00, 0.00, -0.00, -1.00, 152.3, 222.0)">a</text><text xml:space="preserve" font-family="Courier" font-size="15.0" fill="#5B5753" transform="matrix(1.00, 0.00, -0.00, -1.00, 161.6, 222.0)">s</text><text xml:space="preserve" font-family="Courier" font-size="15.0" fill="#5B5753" transform="matrix(1.00, 0.00, -0.00, -1.00, 171.0, 222.0)">s</text><text xml:space="preserve" font-family="Courier" font-size="15.0" fill="#5B5753" transform="matrix(1.00, 0.00, -0.00, -1.00, 180.3, 222.0)"> </text><text xml:space="preserve" font-family="Courier" font-size="15.0" fill="#5B5753" transform="matrix(1.00, 0.00, -0.00, -1.00, 189.6, 222.0)">i</text><text xml:space="preserve" font-family="Courier" font-size="15.0" fill="#5B5753" transform="matrix(1.00, 0.00, -0.00, -1.00, 198.9, 222.0)">n</text><text xml:space="preserve" font-family="Courier" font-size="15.0" fill="#5B5753" transform="matrix(1.00, 0.00, -0.00, -1.00, 208.3, 222.0)">s</text><text xml:space="preserve" font-family="Courier" font-size="15.0" fill="#5B5753" transform="matrix(1.00, 0.00, -0.00, -1.00, 217.6, 222.0)">t</text><text xml:space="preserve" font-family="Courier" font-size="15.0" fill="#5B5753" transform="matrix(1.00, 0.00, -0.00, -1.00, 226.9, 222.0)">a</text><text xml:space="preserve" font-family="Courier" font-size="15.0" fill="#5B5753" transform="matrix(1.00, 0.00, -0.00, -1.00, 236.3, 222.0)">n</text><text xml:space="preserve" font-family="Courier" font-size="15.0" fill="#5B5753" transform="matrix(1.00, 0.00, -0.00, -1.00, 245.6, 222.0)">c</text><text xml:space="preserve" font-family="Courier" font-size="15.0" fill="#5B5753" transform="matrix(1.00, 0.00, -0.00, -1.00, 254.9, 222.0)">e</text><text xml:space="preserve" font-family="Courier" font-size="15.0" fill="#5B5753" transform="matrix(1.00, 0.00, -0.00, -1.00, 264.2, 222.0)"> </text><text xml:space="preserve" font-family="Courier" font-size="15.0" fill="#5B5753" transform="matrix(1.00, 0.00, -0.00, -1.00, 273.5, 222.0)"> </text><text xml:space="preserve" font-family="Courier" font-size="15.0" fill="#5B5753" transform="matrix(1.00, 0.00, -0.00, -1.00, 282.9, 222.0)"> </text><text xml:space="preserve" font-family="Courier" font-size="15.0" fill="#5B5753" transform="matrix(1.00, 0.00, -0.00, -1.00, 292.2, 222.0)">v</text><text xml:space="preserve" font-family="Courier" font-size="15.0" fill="#5B5753" transform="matrix(1.00, 0.00, -0.00, -1.00, 301.5, 222.0)">a</text><text xml:space="preserve" font-family="Courier" font-size="15.0" fill="#5B5753" transform="matrix(1.00, 0.00, -0.00, -1.00, 310.9, 222.0)">r</text><text xml:space="preserve" font-family="Courier" font-size="15.0" fill="#5B5753" transform="matrix(1.00, 0.00, -0.00, -1.00, 320.2, 222.0)"> </text><text xml:space="preserve" font-family="Courier" font-size="15.0" fill="#5B5753" transform="matrix(1.00, 0.00, -0.00, -1.00, 329.5, 222.0)">i</text><text xml:space="preserve" font-family="Courier" font-size="15.0" fill="#5B5753" transform="matrix(1.00, 0.00, -0.00, -1.00, 338.8, 222.0)">n</text><text xml:space="preserve" font-family="Courier" font-size="15.0" fill="#5B5753" transform="matrix(1.00, 0.00, -0.00, -1.00, 348.2, 222.0)">s</text><text xml:space="preserve" font-family="Courier" font-size="15.0" fill="#5B5753" transform="matrix(1.00, 0.00, -0.00, -1.00, 357.5, 222.0)">t</text><text xml:space="preserve" font-family="Courier" font-size="15.0" fill="#5B5753" transform="matrix(1.00, 0.00, -0.00, -1.00, 366.8, 222.0)">a</text><text xml:space="preserve" font-family="Courier" font-size="15.0" fill="#5B5753" transform="matrix(1.00, 0.00, -0.00, -1.00, 376.2, 222.0)">n</text><text xml:space="preserve" font-family="Courier" font-size="15.0" fill="#5B5753" transform="matrix(1.00, 0.00, -0.00, -1.00, 385.5, 222.0)">c</text><text xml:space="preserve" font-family="Courier" font-size="15.0" fill="#5B5753" transform="matrix(1.00, 0.00, -0.00, -1.00, 394.8, 222.0)">e</text><text xml:space="preserve" font-family="Courier" font-size="15.0" fill="#5B5753" transform="matrix(1.00, 0.00, -0.00, -1.00, 404.1, 222.0)"> </text><text xml:space="preserve" font-family="Courier" font-size="15.0" fill="#5B5753" transform="matrix(1.00, 0.00, -0.00, -1.00, 413.5, 222.0)">M</text><text xml:space="preserve" font-family="Courier" font-size="15.0" fill="#5B5753" transform="matrix(1.00, 0.00, -0.00, -1.00, 422.8, 222.0)">y</text><text xml:space="preserve" font-family="Courier" font-size="15.0" fill="#5B5753" transform="matrix(1.00, 0.00, -0.00, -1.00, 432.1, 222.0)">C</text><text xml:space="preserve" font-family="Courier" font-size="15.0" fill="#5B5753" transform="matrix(1.00, 0.00, -0.00, -1.00, 441.4, 222.0)">l</text><text xml:space="preserve" font-family="Courier" font-size="15.0" fill="#5B5753" transform="matrix(1.00, 0.00, -0.00, -1.00, 450.8, 222.0)">a</text><text xml:space="preserve" font-family="Courier" font-size="15.0" fill="#5B5753" transform="matrix(1.00, 0.00, -0.00, -1.00, 460.1, 222.0)">s</text><text xml:space="preserve" font-family="Courier" font-size="15.0" fill="#5B5753" transform="matrix(1.00, 0.00, -0.00, -1.00, 469.4, 222.0)">s</text><g><clipPath id="clip-18"><path d="M 114.2 224.0 L 264.4 224.0 L 264.4 226.8 L 114.2 226.8 Z M 114.2 224.0 "></path></clipPath><g clip-path="url(#clip-18)"><path d="M 62.2 354.6 L 211.4 354.6 " fill="none" stroke="#5B5753" stroke-width="0.79" stroke-miterlimit="0.00" transform="matrix(1.00, 0.00, 0.00, -1.00, 53.0, 580.0)"></path></g></g><text xml:space="preserve" font-family="Avenir-Medium" font-size="19.7" fill="#9A958D" transform="matrix(1.00, 0.00, -0.00, -1.00, 57.0, 162.0)">•</text><text xml:space="preserve" font-family="Avenir-Medium" font-size="26.3" fill="#5B5753" transform="matrix(1.00, 0.00, -0.00, -1.00, 85.0, 160.0)">P</text><text xml:space="preserve" font-family="Avenir-Medium" font-size="26.3" fill="#5B5753" transform="matrix(1.00, 0.00, -0.00, -1.00, 101.1, 160.0)">a</text><text xml:space="preserve" font-family="Avenir-Medium" font-size="26.3" fill="#5B5753" transform="matrix(1.00, 0.00, -0.00, -1.00, 115.3, 160.0)">c</text><text xml:space="preserve" font-family="Avenir-Medium" font-size="26.3" fill="#5B5753" transform="matrix(1.00, 0.00, -0.00, -1.00, 128.5, 160.0)">k</text><text xml:space="preserve" font-family="Avenir-Medium" font-size="26.3" fill="#5B5753" transform="matrix(1.00, 0.00, -0.00, -1.00, 142.7, 160.0)">a</text><text xml:space="preserve" font-family="Avenir-Medium" font-size="26.3" fill="#5B5753" transform="matrix(1.00, 0.00, -0.00, -1.00, 156.9, 160.0)">g</text><text xml:space="preserve" font-family="Avenir-Medium" font-size="26.3" fill="#5B5753" transform="matrix(1.00, 0.00, -0.00, -1.00, 173.5, 160.0)">e</text><text xml:space="preserve" font-family="Avenir-Medium" font-size="26.3" fill="#5B5753" transform="matrix(1.00, 0.00, -0.00, -1.00, 188.7, 160.0)"> </text><text xml:space="preserve" font-family="Avenir-Medium" font-size="26.3" fill="#5B5753" transform="matrix(1.00, 0.00, -0.00, -1.00, 196.5, 160.0)">m</text><text xml:space="preserve" font-family="Avenir-Medium" font-size="26.3" fill="#5B5753" transform="matrix(1.00, 0.00, -0.00, -1.00, 219.5, 160.0)">a</text><text xml:space="preserve" font-family="Avenir-Medium" font-size="26.3" fill="#5B5753" transform="matrix(1.00, 0.00, -0.00, -1.00, 233.7, 160.0)">n</text><text xml:space="preserve" font-family="Avenir-Medium" font-size="26.3" fill="#5B5753" transform="matrix(1.00, 0.00, -0.00, -1.00, 248.8, 160.0)">a</text><text xml:space="preserve" font-family="Avenir-Medium" font-size="26.3" fill="#5B5753" transform="matrix(1.00, 0.00, -0.00, -1.00, 263.0, 160.0)">g</text><text xml:space="preserve" font-family="Avenir-Medium" font-size="26.3" fill="#5B5753" transform="matrix(1.00, 0.00, -0.00, -1.00, 279.6, 160.0)">e</text><text xml:space="preserve" font-family="Avenir-Medium" font-size="26.3" fill="#5B5753" transform="matrix(1.00, 0.00, -0.00, -1.00, 294.8, 160.0)">m</text><text xml:space="preserve" font-family="Avenir-Medium" font-size="26.3" fill="#5B5753" transform="matrix(1.00, 0.00, -0.00, -1.00, 317.7, 160.0)">e</text><text xml:space="preserve" font-family="Avenir-Medium" font-size="26.3" fill="#5B5753" transform="matrix(1.00, 0.00, -0.00, -1.00, 332.9, 160.0)">n</text><text xml:space="preserve" font-family="Avenir-Medium" font-size="26.3" fill="#5B5753" transform="matrix(1.00, 0.00, -0.00, -1.00, 348.0, 160.0)">t</text><text xml:space="preserve" font-family="Avenir-Medium" font-size="26.3" fill="#5B5753" transform="matrix(1.00, 0.00, -0.00, -1.00, 358.3, 160.0)">,</text><text xml:space="preserve" font-family="Avenir-Medium" font-size="26.3" fill="#5B5753" transform="matrix(1.00, 0.00, -0.00, -1.00, 366.2, 160.0)"> </text><text xml:space="preserve" font-family="Avenir-Medium" font-size="26.3" fill="#5B5753" transform="matrix(1.00, 0.00, -0.00, -1.00, 374.0, 160.0)">d</text><text xml:space="preserve" font-family="Avenir-Medium" font-size="26.3" fill="#5B5753" transform="matrix(1.00, 0.00, -0.00, -1.00, 390.6, 160.0)">o</text><text xml:space="preserve" font-family="Avenir-Medium" font-size="26.3" fill="#5B5753" transform="matrix(1.00, 0.00, -0.00, -1.00, 406.8, 160.0)">w</text><text xml:space="preserve" font-family="Avenir-Medium" font-size="26.3" fill="#5B5753" transform="matrix(1.00, 0.00, -0.00, -1.00, 427.3, 160.0)">n</text><text xml:space="preserve" font-family="Avenir-Medium" font-size="26.3" fill="#5B5753" transform="matrix(1.00, 0.00, -0.00, -1.00, 442.4, 160.0)">l</text><text xml:space="preserve" font-family="Avenir-Medium" font-size="26.3" fill="#5B5753" transform="matrix(1.00, 0.00, -0.00, -1.00, 449.3, 160.0)">o</text><text xml:space="preserve" font-family="Avenir-Medium" font-size="26.3" fill="#5B5753" transform="matrix(1.00, 0.00, -0.00, -1.00, 465.4, 160.0)">a</text><text xml:space="preserve" font-family="Avenir-Medium" font-size="26.3" fill="#5B5753" transform="matrix(1.00, 0.00, -0.00, -1.00, 479.6, 160.0)">d</text><text xml:space="preserve" font-family="Avenir-Medium" font-size="26.3" fill="#5B5753" transform="matrix(1.00, 0.00, -0.00, -1.00, 496.2, 160.0)">s</text><text xml:space="preserve" font-family="Avenir-Medium" font-size="26.3" fill="#5B5753" transform="matrix(1.00, 0.00, -0.00, -1.00, 508.4, 160.0)"> </text><text xml:space="preserve" font-family="Avenir-Medium" font-size="26.3" fill="#5B5753" transform="matrix(1.00, 0.00, -0.00, -1.00, 516.3, 160.0)">a</text><text xml:space="preserve" font-family="Avenir-Medium" font-size="26.3" fill="#5B5753" transform="matrix(1.00, 0.00, -0.00, -1.00, 530.5, 160.0)">n</text><text xml:space="preserve" font-family="Avenir-Medium" font-size="26.3" fill="#5B5753" transform="matrix(1.00, 0.00, -0.00, -1.00, 545.6, 160.0)">d</text><text xml:space="preserve" font-family="Avenir-Medium" font-size="26.3" fill="#5B5753" transform="matrix(1.00, 0.00, -0.00, -1.00, 562.2, 160.0)"> </text><text xml:space="preserve" font-family="Avenir-Medium" font-size="26.3" fill="#5B5753" transform="matrix(1.00, 0.00, -0.00, -1.00, 570.1, 160.0)">i</text><text xml:space="preserve" font-family="Avenir-Medium" font-size="26.3" fill="#5B5753" transform="matrix(1.00, 0.00, -0.00, -1.00, 576.9, 160.0)">n</text><text xml:space="preserve" font-family="Avenir-Medium" font-size="26.3" fill="#5B5753" transform="matrix(1.00, 0.00, -0.00, -1.00, 592.1, 160.0)">s</text><text xml:space="preserve" font-family="Avenir-Medium" font-size="26.3" fill="#5B5753" transform="matrix(1.00, 0.00, -0.00, -1.00, 604.3, 160.0)">t</text><text xml:space="preserve" font-family="Avenir-Medium" font-size="26.3" fill="#5B5753" transform="matrix(1.00, 0.00, -0.00, -1.00, 614.6, 160.0)">a</text><text xml:space="preserve" font-family="Avenir-Medium" font-size="26.3" fill="#5B5753" transform="matrix(1.00, 0.00, -0.00, -1.00, 628.7, 160.0)">l</text><text xml:space="preserve" font-family="Avenir-Medium" font-size="26.3" fill="#5B5753" transform="matrix(1.00, 0.00, -0.00, -1.00, 635.6, 160.0)">l</text><text xml:space="preserve" font-family="Avenir-Medium" font-size="26.3" fill="#5B5753" transform="matrix(1.00, 0.00, -0.00, -1.00, 642.4, 160.0)">s</text><text xml:space="preserve" font-family="Avenir-Medium" font-size="26.3" fill="#5B5753" transform="matrix(1.00, 0.00, -0.00, -1.00, 654.6, 160.0)"> </text><text xml:space="preserve" font-family="Avenir-Medium" font-size="26.3" fill="#5B5753" transform="matrix(1.00, 0.00, -0.00, -1.00, 662.5, 160.0)">f</text><text xml:space="preserve" font-family="Avenir-Medium" font-size="26.3" fill="#5B5753" transform="matrix(1.00, 0.00, -0.00, -1.00, 671.8, 160.0)">r</text><text xml:space="preserve" font-family="Avenir-Medium" font-size="26.3" fill="#5B5753" transform="matrix(1.00, 0.00, -0.00, -1.00, 681.6, 160.0)">o</text><text xml:space="preserve" font-family="Avenir-Medium" font-size="26.3" fill="#5B5753" transform="matrix(1.00, 0.00, -0.00, -1.00, 697.7, 160.0)">m</text><text xml:space="preserve" font-family="Avenir-Medium" font-size="26.3" fill="#5B5753" transform="matrix(1.00, 0.00, -0.00, -1.00, 720.7, 160.0)"> </text><text xml:space="preserve" font-family="Avenir-Medium" font-size="26.3" fill="#5B5753" transform="matrix(1.00, 0.00, -0.00, -1.00, 728.5, 160.0)">g</text><text xml:space="preserve" font-family="Avenir-Medium" font-size="26.3" fill="#5B5753" transform="matrix(1.00, 0.00, -0.00, -1.00, 745.1, 160.0)">i</text><text xml:space="preserve" font-family="Avenir-Medium" font-size="26.3" fill="#5B5753" transform="matrix(1.00, 0.00, -0.00, -1.00, 752.0, 160.0)">t</text><text xml:space="preserve" font-family="Avenir-Medium" font-size="26.3" fill="#5B5753" transform="matrix(1.00, 0.00, -0.00, -1.00, 762.2, 160.0)"> </text><text xml:space="preserve" font-family="Avenir-Medium" font-size="26.3" fill="#5B5753" transform="matrix(1.00, 0.00, -0.00, -1.00, 770.1, 160.0)">r</text><text xml:space="preserve" font-family="Avenir-Medium" font-size="26.3" fill="#5B5753" transform="matrix(1.00, 0.00, -0.00, -1.00, 779.9, 160.0)">e</text><text xml:space="preserve" font-family="Avenir-Medium" font-size="26.3" fill="#5B5753" transform="matrix(1.00, 0.00, -0.00, -1.00, 795.0, 160.0)">p</text><text xml:space="preserve" font-family="Avenir-Medium" font-size="26.3" fill="#5B5753" transform="matrix(1.00, 0.00, -0.00, -1.00, 811.6, 160.0)">o</text><text xml:space="preserve" font-family="Avenir-Medium" font-size="19.7" fill="#9A958D" transform="matrix(1.00, 0.00, -0.00, -1.00, 57.0, 94.0)">•</text><text xml:space="preserve" font-family="Avenir-Medium" font-size="26.3" fill="#5B5753" transform="matrix(1.00, 0.00, -0.00, -1.00, 85.0, 92.0)">N</text><text xml:space="preserve" font-family="Avenir-Medium" font-size="26.3" fill="#5B5753" transform="matrix(1.00, 0.00, -0.00, -1.00, 106.5, 92.0)">o</text><text xml:space="preserve" font-family="Avenir-Medium" font-size="26.3" fill="#5B5753" transform="matrix(1.00, 0.00, -0.00, -1.00, 122.6, 92.0)"> </text><text xml:space="preserve" font-family="Avenir-Medium" font-size="26.3" fill="#5B5753" transform="matrix(1.00, 0.00, -0.00, -1.00, 130.5, 92.0)">e</text><text xml:space="preserve" font-family="Avenir-Medium" font-size="26.3" fill="#5B5753" transform="matrix(1.00, 0.00, -0.00, -1.00, 145.6, 92.0)">a</text><text xml:space="preserve" font-family="Avenir-Medium" font-size="26.3" fill="#5B5753" transform="matrix(1.00, 0.00, -0.00, -1.00, 159.8, 92.0)">s</text><text xml:space="preserve" font-family="Avenir-Medium" font-size="26.3" fill="#5B5753" transform="matrix(1.00, 0.00, -0.00, -1.00, 172.0, 92.0)">y</text><text xml:space="preserve" font-family="Avenir-Medium" font-size="26.3" fill="#5B5753" transform="matrix(1.00, 0.00, -0.00, -1.00, 185.7, 92.0)"> </text><text xml:space="preserve" font-family="Avenir-Medium" font-size="26.3" fill="#5B5753" transform="matrix(1.00, 0.00, -0.00, -1.00, 193.6, 92.0)">i</text><text xml:space="preserve" font-family="Avenir-Medium" font-size="26.3" fill="#5B5753" transform="matrix(1.00, 0.00, -0.00, -1.00, 200.4, 92.0)">n</text><text xml:space="preserve" font-family="Avenir-Medium" font-size="26.3" fill="#5B5753" transform="matrix(1.00, 0.00, -0.00, -1.00, 215.6, 92.0)">-</text><text xml:space="preserve" font-family="Avenir-Medium" font-size="26.3" fill="#5B5753" transform="matrix(1.00, 0.00, -0.00, -1.00, 224.4, 92.0)">b</text><text xml:space="preserve" font-family="Avenir-Medium" font-size="26.3" fill="#5B5753" transform="matrix(1.00, 0.00, -0.00, -1.00, 241.0, 92.0)">u</text><text xml:space="preserve" font-family="Avenir-Medium" font-size="26.3" fill="#5B5753" transform="matrix(1.00, 0.00, -0.00, -1.00, 256.2, 92.0)">i</text><text xml:space="preserve" font-family="Avenir-Medium" font-size="26.3" fill="#5B5753" transform="matrix(1.00, 0.00, -0.00, -1.00, 263.0, 92.0)">l</text><text xml:space="preserve" font-family="Avenir-Medium" font-size="26.3" fill="#5B5753" transform="matrix(1.00, 0.00, -0.00, -1.00, 269.9, 92.0)">t</text><text xml:space="preserve" font-family="Avenir-Medium" font-size="26.3" fill="#5B5753" transform="matrix(1.00, 0.00, -0.00, -1.00, 280.1, 92.0)"> </text><text xml:space="preserve" font-family="Avenir-Medium" font-size="26.3" fill="#5B5753" transform="matrix(1.00, 0.00, -0.00, -1.00, 288.0, 92.0)">d</text><text xml:space="preserve" font-family="Avenir-Medium" font-size="26.3" fill="#5B5753" transform="matrix(1.00, 0.00, -0.00, -1.00, 304.6, 92.0)">e</text><text xml:space="preserve" font-family="Avenir-Medium" font-size="26.3" fill="#5B5753" transform="matrix(1.00, 0.00, -0.00, -1.00, 319.7, 92.0)">p</text><text xml:space="preserve" font-family="Avenir-Medium" font-size="26.3" fill="#5B5753" transform="matrix(1.00, 0.00, -0.00, -1.00, 336.4, 92.0)">e</text><text xml:space="preserve" font-family="Avenir-Medium" font-size="26.3" fill="#5B5753" transform="matrix(1.00, 0.00, -0.00, -1.00, 351.5, 92.0)">n</text><text xml:space="preserve" font-family="Avenir-Medium" font-size="26.3" fill="#5B5753" transform="matrix(1.00, 0.00, -0.00, -1.00, 366.7, 92.0)">d</text><text xml:space="preserve" font-family="Avenir-Medium" font-size="26.3" fill="#5B5753" transform="matrix(1.00, 0.00, -0.00, -1.00, 383.3, 92.0)">e</text><text xml:space="preserve" font-family="Avenir-Medium" font-size="26.3" fill="#5B5753" transform="matrix(1.00, 0.00, -0.00, -1.00, 398.4, 92.0)">n</text><text xml:space="preserve" font-family="Avenir-Medium" font-size="26.3" fill="#5B5753" transform="matrix(1.00, 0.00, -0.00, -1.00, 413.6, 92.0)">c</text><text xml:space="preserve" font-family="Avenir-Medium" font-size="26.3" fill="#5B5753" transform="matrix(1.00, 0.00, -0.00, -1.00, 426.8, 92.0)">y</text><text xml:space="preserve" font-family="Avenir-Medium" font-size="26.3" fill="#5B5753" transform="matrix(1.00, 0.00, -0.00, -1.00, 440.5, 92.0)"> </text><text xml:space="preserve" font-family="Avenir-Medium" font-size="26.3" fill="#5B5753" transform="matrix(1.00, 0.00, -0.00, -1.00, 448.3, 92.0)">m</text><text xml:space="preserve" font-family="Avenir-Medium" font-size="26.3" fill="#5B5753" transform="matrix(1.00, 0.00, -0.00, -1.00, 471.3, 92.0)">a</text><text xml:space="preserve" font-family="Avenir-Medium" font-size="26.3" fill="#5B5753" transform="matrix(1.00, 0.00, -0.00, -1.00, 485.5, 92.0)">n</text><text xml:space="preserve" font-family="Avenir-Medium" font-size="26.3" fill="#5B5753" transform="matrix(1.00, 0.00, -0.00, -1.00, 500.6, 92.0)">a</text><text xml:space="preserve" font-family="Avenir-Medium" font-size="26.3" fill="#5B5753" transform="matrix(1.00, 0.00, -0.00, -1.00, 514.8, 92.0)">g</text><text xml:space="preserve" font-family="Avenir-Medium" font-size="26.3" fill="#5B5753" transform="matrix(1.00, 0.00, -0.00, -1.00, 531.4, 92.0)">e</text><text xml:space="preserve" font-family="Avenir-Medium" font-size="26.3" fill="#5B5753" transform="matrix(1.00, 0.00, -0.00, -1.00, 546.6, 92.0)">m</text><text xml:space="preserve" font-family="Avenir-Medium" font-size="26.3" fill="#5B5753" transform="matrix(1.00, 0.00, -0.00, -1.00, 569.6, 92.0)">e</text><text xml:space="preserve" font-family="Avenir-Medium" font-size="26.3" fill="#5B5753" transform="matrix(1.00, 0.00, -0.00, -1.00, 584.7, 92.0)">n</text><text xml:space="preserve" font-family="Avenir-Medium" font-size="26.3" fill="#5B5753" transform="matrix(1.00, 0.00, -0.00, -1.00, 599.9, 92.0)">t</text><text xml:space="preserve" font-family="Avenir-Medium" font-size="26.3" fill="#5B5753" transform="matrix(1.00, 0.00, -0.00, -1.00, 610.1, 92.0)"> </text><text xml:space="preserve" font-family="Avenir-Medium" font-size="26.3" fill="#5B5753" transform="matrix(1.00, 0.00, -0.00, -1.00, 618.0, 92.0)">(</text><text xml:space="preserve" font-family="Avenir-Medium" font-size="26.3" fill="#5B5753" transform="matrix(1.00, 0.00, -0.00, -1.00, 625.8, 92.0)">j</text><text xml:space="preserve" font-family="Avenir-Medium" font-size="26.3" fill="#5B5753" transform="matrix(1.00, 0.00, -0.00, -1.00, 632.7, 92.0)">u</text><text xml:space="preserve" font-family="Avenir-Medium" font-size="26.3" fill="#5B5753" transform="matrix(1.00, 0.00, -0.00, -1.00, 647.8, 92.0)">s</text><text xml:space="preserve" font-family="Avenir-Medium" font-size="26.3" fill="#5B5753" transform="matrix(1.00, 0.00, -0.00, -1.00, 660.0, 92.0)">t</text><text xml:space="preserve" font-family="Avenir-Medium" font-size="26.3" fill="#5B5753" transform="matrix(1.00, 0.00, -0.00, -1.00, 670.3, 92.0)"> </text><text xml:space="preserve" font-family="Avenir-Medium" font-size="26.3" fill="#5B5753" transform="matrix(1.00, 0.00, -0.00, -1.00, 678.1, 92.0)">g</text><text xml:space="preserve" font-family="Avenir-Medium" font-size="26.3" fill="#5B5753" transform="matrix(1.00, 0.00, -0.00, -1.00, 694.8, 92.0)">r</text><text xml:space="preserve" font-family="Avenir-Medium" font-size="26.3" fill="#5B5753" transform="matrix(1.00, 0.00, -0.00, -1.00, 705.0, 92.0)">a</text><text xml:space="preserve" font-family="Avenir-Medium" font-size="26.3" fill="#5B5753" transform="matrix(1.00, 0.00, -0.00, -1.00, 719.2, 92.0)">b</text><text xml:space="preserve" font-family="Avenir-Medium" font-size="26.3" fill="#5B5753" transform="matrix(1.00, 0.00, -0.00, -1.00, 735.8, 92.0)">s</text><text xml:space="preserve" font-family="Avenir-Medium" font-size="26.3" fill="#5B5753" transform="matrix(1.00, 0.00, -0.00, -1.00, 748.0, 92.0)"> </text><text xml:space="preserve" font-family="Avenir-Medium" font-size="26.3" fill="#5B5753" transform="matrix(1.00, 0.00, -0.00, -1.00, 755.9, 92.0)">l</text><text xml:space="preserve" font-family="Avenir-Medium" font-size="26.3" fill="#5B5753" transform="matrix(1.00, 0.00, -0.00, -1.00, 762.7, 92.0)">a</text><text xml:space="preserve" font-family="Avenir-Medium" font-size="26.3" fill="#5B5753" transform="matrix(1.00, 0.00, -0.00, -1.00, 776.9, 92.0)">t</text><text xml:space="preserve" font-family="Avenir-Medium" font-size="26.3" fill="#5B5753" transform="matrix(1.00, 0.00, -0.00, -1.00, 787.2, 92.0)">e</text><text xml:space="preserve" font-family="Avenir-Medium" font-size="26.3" fill="#5B5753" transform="matrix(1.00, 0.00, -0.00, -1.00, 802.3, 92.0)">s</text><text xml:space="preserve" font-family="Avenir-Medium" font-size="26.3" fill="#5B5753" transform="matrix(1.00, 0.00, -0.00, -1.00, 814.5, 92.0)">t</text><text xml:space="preserve" font-family="Avenir-Medium" font-size="26.3" fill="#5B5753" transform="matrix(1.00, 0.00, -0.00, -1.00, 824.8, 92.0)"> </text><text xml:space="preserve" font-family="Avenir-Medium" font-size="26.3" fill="#5B5753" transform="matrix(1.00, 0.00, -0.00, -1.00, 832.6, 92.0)">v</text><text xml:space="preserve" font-family="Avenir-Medium" font-size="26.3" fill="#5B5753" transform="matrix(1.00, 0.00, -0.00, -1.00, 846.3, 92.0)">e</text><text xml:space="preserve" font-family="Avenir-Medium" font-size="26.3" fill="#5B5753" transform="matrix(1.00, 0.00, -0.00, -1.00, 861.5, 92.0)">r</text><text xml:space="preserve" font-family="Avenir-Medium" font-size="26.3" fill="#5B5753" transform="matrix(1.00, 0.00, -0.00, -1.00, 871.8, 92.0)">s</text><text xml:space="preserve" font-family="Avenir-Medium" font-size="26.3" fill="#5B5753" transform="matrix(1.00, 0.00, -0.00, -1.00, 884.0, 92.0)">i</text><text xml:space="preserve" font-family="Avenir-Medium" font-size="26.3" fill="#5B5753" transform="matrix(1.00, 0.00, -0.00, -1.00, 890.8, 92.0)">o</text><text xml:space="preserve" font-family="Avenir-Medium" font-size="26.3" fill="#5B5753" transform="matrix(1.00, 0.00, -0.00, -1.00, 907.0, 92.0)">n</text><text xml:space="preserve" font-family="Avenir-Medium" font-size="26.3" fill="#5B5753" transform="matrix(1.00, 0.00, -0.00, -1.00, 922.1, 92.0)">)</text></g></svg>