<?xml version="1.0" encoding="UTF-8" standalone="no"?><svg xmlns="http://www.w3.org/2000/svg" xmlns:xlink="http://www.w3.org/1999/xlink" clip-rule="evenodd" stroke-miterlimit="4.00" viewBox="0 0 1024 768"><desc>SVG generated by Keynote</desc><defs></defs><g transform="matrix(1.00, 0.00, -0.00, -1.00, 0.0, 768.0)"><g><clipPath id="clip-4"><path d="M 0.0 768.0 L 1024.0 768.0 L 1024.0 0.0 L 0.0 0.0 Z M 0.0 768.0 "></path></clipPath><g clip-path="url(#clip-4)"><image xlink:href="../../76585095-441F-4A8D-8AF4-2D51A66723B6/assets/D52BF74205EDDA1E3AD886EF31563845.jpeg" width="1024.00" height="768.00" transform="matrix(1.00, 0.00, -0.00, -1.00, 0.0, 768.0)"></image></g></g><text xml:space="preserve" font-family="Futura-Medium" font-size="26.0" fill="#5B5753" transform="matrix(1.00, 0.00, -0.00, -1.00, 321.0, 633.0)">W</text><text xml:space="preserve" font-family="Futura-Medium" font-size="26.0" fill="#5B5753" transform="matrix(1.00, 0.00, -0.00, -1.00, 350.9, 633.0)">H</text><text xml:space="preserve" font-family="Futura-Medium" font-size="26.0" fill="#5B5753" transform="matrix(1.00, 0.00, -0.00, -1.00, 372.3, 633.0)">Y</text><text xml:space="preserve" font-family="Futura-Medium" font-size="26.0" fill="#5B5753" transform="matrix(1.00, 0.00, -0.00, -1.00, 390.3, 633.0)"> </text><text xml:space="preserve" font-family="Futura-Medium" font-size="26.0" fill="#5B5753" transform="matrix(1.00, 0.00, -0.00, -1.00, 400.6, 633.0)">I</text><text xml:space="preserve" font-family="Futura-Medium" font-size="26.0" fill="#5B5753" transform="matrix(1.00, 0.00, -0.00, -1.00, 410.6, 633.0)">’</text><text xml:space="preserve" font-family="Futura-Medium" font-size="26.0" fill="#5B5753" transform="matrix(1.00, 0.00, -0.00, -1.00, 421.4, 633.0)">M</text><text xml:space="preserve" font-family="Futura-Medium" font-size="26.0" fill="#5B5753" transform="matrix(1.00, 0.00, -0.00, -1.00, 448.8, 633.0)"> </text><text xml:space="preserve" font-family="Futura-Medium" font-size="26.0" fill="#5B5753" transform="matrix(1.00, 0.00, -0.00, -1.00, 459.1, 633.0)">D</text><text xml:space="preserve" font-family="Futura-Medium" font-size="26.0" fill="#5B5753" transform="matrix(1.00, 0.00, -0.00, -1.00, 480.4, 633.0)">I</text><text xml:space="preserve" font-family="Futura-Medium" font-size="26.0" fill="#5B5753" transform="matrix(1.00, 0.00, -0.00, -1.00, 490.4, 633.0)">T</text><text xml:space="preserve" font-family="Futura-Medium" font-size="26.0" fill="#5B5753" transform="matrix(1.00, 0.00, -0.00, -1.00, 504.6, 633.0)">C</text><text xml:space="preserve" font-family="Futura-Medium" font-size="26.0" fill="#5B5753" transform="matrix(1.00, 0.00, -0.00, -1.00, 525.7, 633.0)">H</text><text xml:space="preserve" font-family="Futura-Medium" font-size="26.0" fill="#5B5753" transform="matrix(1.00, 0.00, -0.00, -1.00, 547.1, 633.0)">I</text><text xml:space="preserve" font-family="Futura-Medium" font-size="26.0" fill="#5B5753" transform="matrix(1.00, 0.00, -0.00, -1.00, 557.1, 633.0)">N</text><text xml:space="preserve" font-family="Futura-Medium" font-size="26.0" fill="#5B5753" transform="matrix(1.00, 0.00, -0.00, -1.00, 581.6, 633.0)">G</text><text xml:space="preserve" font-family="Futura-Medium" font-size="26.0" fill="#5B5753" transform="matrix(1.00, 0.00, -0.00, -1.00, 605.8, 633.0)"> </text><text xml:space="preserve" font-family="Futura-Medium" font-size="26.0" fill="#5B5753" transform="matrix(1.00, 0.00, -0.00, -1.00, 616.2, 633.0)">N</text><text xml:space="preserve" font-family="Futura-Medium" font-size="26.0" fill="#5B5753" transform="matrix(1.00, 0.00, -0.00, -1.00, 640.7, 633.0)">O</text><text xml:space="preserve" font-family="Futura-Medium" font-size="26.0" fill="#5B5753" transform="matrix(1.00, 0.00, -0.00, -1.00, 666.2, 633.0)">D</text><text xml:space="preserve" font-family="Futura-Medium" font-size="26.0" fill="#5B5753" transform="matrix(1.00, 0.00, -0.00, -1.00, 687.5, 633.0)">E</text><text xml:space="preserve" font-family="Futura-Medium" font-size="39.6" fill="#5B5753" transform="matrix(1.00, 0.00, -0.00, -1.00, 365.0, 677.0)">B</text><text xml:space="preserve" font-family="Futura-Medium" font-size="39.6" fill="#5B5753" transform="matrix(1.00, 0.00, -0.00, -1.00, 388.8, 677.0)">A</text><text xml:space="preserve" font-family="Futura-Medium" font-size="39.6" fill="#5B5753" transform="matrix(1.00, 0.00, -0.00, -1.00, 417.5, 677.0)">C</text><text xml:space="preserve" font-family="Futura-Medium" font-size="39.6" fill="#5B5753" transform="matrix(1.00, 0.00, -0.00, -1.00, 446.9, 677.0)">K</text><text xml:space="preserve" font-family="Futura-Medium" font-size="39.6" fill="#5B5753" transform="matrix(1.00, 0.00, -0.00, -1.00, 472.1, 677.0)">G</text><text xml:space="preserve" font-family="Futura-Medium" font-size="39.6" fill="#5B5753" transform="matrix(1.00, 0.00, -0.00, -1.00, 506.3, 677.0)">R</text><text xml:space="preserve" font-family="Futura-Medium" font-size="39.6" fill="#5B5753" transform="matrix(1.00, 0.00, -0.00, -1.00, 530.3, 677.0)">O</text><text xml:space="preserve" font-family="Futura-Medium" font-size="39.6" fill="#5B5753" transform="matrix(1.00, 0.00, -0.00, -1.00, 566.4, 677.0)">U</text><text xml:space="preserve" font-family="Futura-Medium" font-size="39.6" fill="#5B5753" transform="matrix(1.00, 0.00, -0.00, -1.00, 596.5, 677.0)">N</text><text xml:space="preserve" font-family="Futura-Medium" font-size="39.6" fill="#5B5753" transform="matrix(1.00, 0.00, -0.00, -1.00, 630.7, 677.0)">D</text></g></svg>