<?xml version="1.0" encoding="UTF-8" standalone="no"?><svg xmlns="http://www.w3.org/2000/svg" xmlns:xlink="http://www.w3.org/1999/xlink" clip-rule="evenodd" stroke-miterlimit="4.00" viewBox="0 0 1024 768"><desc>SVG generated by Keynote</desc><defs></defs><g transform="matrix(1.00, 0.00, -0.00, -1.00, 0.0, 768.0)"><g><clipPath id="clip-3"><path d="M 0.0 768.0 L 1024.0 768.0 L 1024.0 0.0 L 0.0 0.0 Z M 0.0 768.0 "></path></clipPath><g clip-path="url(#clip-3)"><image xlink:href="../../76585095-441F-4A8D-8AF4-2D51A66723B6/assets/D52BF74205EDDA1E3AD886EF31563845.jpeg" width="1024.00" height="768.00" transform="matrix(1.00, 0.00, -0.00, -1.00, 0.0, 768.0)"></image></g></g><text xml:space="preserve" font-family="Futura-Medium" font-size="26.0" fill="#5B5753" transform="matrix(1.00, 0.00, -0.00, -1.00, 296.0, 633.0)">(</text><text xml:space="preserve" font-family="Futura-Medium" font-size="26.0" fill="#5B5753" transform="matrix(1.00, 0.00, -0.00, -1.00, 307.9, 633.0)">W</text><text xml:space="preserve" font-family="Futura-Medium" font-size="26.0" fill="#5B5753" transform="matrix(1.00, 0.00, -0.00, -1.00, 337.8, 633.0)">H</text><text xml:space="preserve" font-family="Futura-Medium" font-size="26.0" fill="#5B5753" transform="matrix(1.00, 0.00, -0.00, -1.00, 359.2, 633.0)">A</text><text xml:space="preserve" font-family="Futura-Medium" font-size="26.0" fill="#5B5753" transform="matrix(1.00, 0.00, -0.00, -1.00, 379.7, 633.0)">T</text><text xml:space="preserve" font-family="Futura-Medium" font-size="26.0" fill="#5B5753" transform="matrix(1.00, 0.00, -0.00, -1.00, 394.5, 633.0)"> </text><text xml:space="preserve" font-family="Futura-Medium" font-size="26.0" fill="#5B5753" transform="matrix(1.00, 0.00, -0.00, -1.00, 404.9, 633.0)">I</text><text xml:space="preserve" font-family="Futura-Medium" font-size="26.0" fill="#5B5753" transform="matrix(1.00, 0.00, -0.00, -1.00, 414.9, 633.0)">’</text><text xml:space="preserve" font-family="Futura-Medium" font-size="26.0" fill="#5B5753" transform="matrix(1.00, 0.00, -0.00, -1.00, 425.7, 633.0)">M</text><text xml:space="preserve" font-family="Futura-Medium" font-size="26.0" fill="#5B5753" transform="matrix(1.00, 0.00, -0.00, -1.00, 453.1, 633.0)"> </text><text xml:space="preserve" font-family="Futura-Medium" font-size="26.0" fill="#5B5753" transform="matrix(1.00, 0.00, -0.00, -1.00, 463.4, 633.0)">T</text><text xml:space="preserve" font-family="Futura-Medium" font-size="26.0" fill="#5B5753" transform="matrix(1.00, 0.00, -0.00, -1.00, 478.3, 633.0)">R</text><text xml:space="preserve" font-family="Futura-Medium" font-size="26.0" fill="#5B5753" transform="matrix(1.00, 0.00, -0.00, -1.00, 495.4, 633.0)">Y</text><text xml:space="preserve" font-family="Futura-Medium" font-size="26.0" fill="#5B5753" transform="matrix(1.00, 0.00, -0.00, -1.00, 513.4, 633.0)">I</text><text xml:space="preserve" font-family="Futura-Medium" font-size="26.0" fill="#5B5753" transform="matrix(1.00, 0.00, -0.00, -1.00, 523.4, 633.0)">N</text><text xml:space="preserve" font-family="Futura-Medium" font-size="26.0" fill="#5B5753" transform="matrix(1.00, 0.00, -0.00, -1.00, 547.9, 633.0)">G</text><text xml:space="preserve" font-family="Futura-Medium" font-size="26.0" fill="#5B5753" transform="matrix(1.00, 0.00, -0.00, -1.00, 572.1, 633.0)"> </text><text xml:space="preserve" font-family="Futura-Medium" font-size="26.0" fill="#5B5753" transform="matrix(1.00, 0.00, -0.00, -1.00, 582.5, 633.0)">T</text><text xml:space="preserve" font-family="Futura-Medium" font-size="26.0" fill="#5B5753" transform="matrix(1.00, 0.00, -0.00, -1.00, 596.7, 633.0)">O</text><text xml:space="preserve" font-family="Futura-Medium" font-size="26.0" fill="#5B5753" transform="matrix(1.00, 0.00, -0.00, -1.00, 622.3, 633.0)"> </text><text xml:space="preserve" font-family="Futura-Medium" font-size="26.0" fill="#5B5753" transform="matrix(1.00, 0.00, -0.00, -1.00, 632.6, 633.0)">M</text><text xml:space="preserve" font-family="Futura-Medium" font-size="26.0" fill="#5B5753" transform="matrix(1.00, 0.00, -0.00, -1.00, 660.0, 633.0)">A</text><text xml:space="preserve" font-family="Futura-Medium" font-size="26.0" fill="#5B5753" transform="matrix(1.00, 0.00, -0.00, -1.00, 681.6, 633.0)">K</text><text xml:space="preserve" font-family="Futura-Medium" font-size="26.0" fill="#5B5753" transform="matrix(1.00, 0.00, -0.00, -1.00, 701.1, 633.0)">E</text><text xml:space="preserve" font-family="Futura-Medium" font-size="26.0" fill="#5B5753" transform="matrix(1.00, 0.00, -0.00, -1.00, 718.2, 633.0)">)</text><text xml:space="preserve" font-family="Futura-Medium" font-size="39.6" fill="#5B5753" transform="matrix(1.00, 0.00, -0.00, -1.00, 365.0, 677.0)">B</text><text xml:space="preserve" font-family="Futura-Medium" font-size="39.6" fill="#5B5753" transform="matrix(1.00, 0.00, -0.00, -1.00, 388.8, 677.0)">A</text><text xml:space="preserve" font-family="Futura-Medium" font-size="39.6" fill="#5B5753" transform="matrix(1.00, 0.00, -0.00, -1.00, 417.5, 677.0)">C</text><text xml:space="preserve" font-family="Futura-Medium" font-size="39.6" fill="#5B5753" transform="matrix(1.00, 0.00, -0.00, -1.00, 446.9, 677.0)">K</text><text xml:space="preserve" font-family="Futura-Medium" font-size="39.6" fill="#5B5753" transform="matrix(1.00, 0.00, -0.00, -1.00, 472.1, 677.0)">G</text><text xml:space="preserve" font-family="Futura-Medium" font-size="39.6" fill="#5B5753" transform="matrix(1.00, 0.00, -0.00, -1.00, 506.3, 677.0)">R</text><text xml:space="preserve" font-family="Futura-Medium" font-size="39.6" fill="#5B5753" transform="matrix(1.00, 0.00, -0.00, -1.00, 530.3, 677.0)">O</text><text xml:space="preserve" font-family="Futura-Medium" font-size="39.6" fill="#5B5753" transform="matrix(1.00, 0.00, -0.00, -1.00, 566.4, 677.0)">U</text><text xml:space="preserve" font-family="Futura-Medium" font-size="39.6" fill="#5B5753" transform="matrix(1.00, 0.00, -0.00, -1.00, 596.5, 677.0)">N</text><text xml:space="preserve" font-family="Futura-Medium" font-size="39.6" fill="#5B5753" transform="matrix(1.00, 0.00, -0.00, -1.00, 630.7, 677.0)">D</text><text xml:space="preserve" font-family="Avenir-Medium" font-size="21.0" fill="#9A958D" transform="matrix(1.00, 0.00, -0.00, -1.00, 57.0, 550.2)">•</text><text xml:space="preserve" font-family="Avenir-Medium" font-size="28.0" fill="#5B5753" transform="matrix(1.00, 0.00, -0.00, -1.00, 87.0, 548.0)">P</text><text xml:space="preserve" font-family="Avenir-Medium" font-size="28.0" fill="#5B5753" transform="matrix(1.00, 0.00, -0.00, -1.00, 104.2, 548.0)">r</text><text xml:space="preserve" font-family="Avenir-Medium" font-size="28.0" fill="#5B5753" transform="matrix(1.00, 0.00, -0.00, -1.00, 114.6, 548.0)">o</text><text xml:space="preserve" font-family="Avenir-Medium" font-size="28.0" fill="#5B5753" transform="matrix(1.00, 0.00, -0.00, -1.00, 131.8, 548.0)">t</text><text xml:space="preserve" font-family="Avenir-Medium" font-size="28.0" fill="#5B5753" transform="matrix(1.00, 0.00, -0.00, -1.00, 142.7, 548.0)">o</text><text xml:space="preserve" font-family="Avenir-Medium" font-size="28.0" fill="#5B5753" transform="matrix(1.00, 0.00, -0.00, -1.00, 159.9, 548.0)">t</text><text xml:space="preserve" font-family="Avenir-Medium" font-size="28.0" fill="#5B5753" transform="matrix(1.00, 0.00, -0.00, -1.00, 170.8, 548.0)">y</text><text xml:space="preserve" font-family="Avenir-Medium" font-size="28.0" fill="#5B5753" transform="matrix(1.00, 0.00, -0.00, -1.00, 185.4, 548.0)">p</text><text xml:space="preserve" font-family="Avenir-Medium" font-size="28.0" fill="#5B5753" transform="matrix(1.00, 0.00, -0.00, -1.00, 203.0, 548.0)">e</text><text xml:space="preserve" font-family="Avenir-Medium" font-size="28.0" fill="#5B5753" transform="matrix(1.00, 0.00, -0.00, -1.00, 219.2, 548.0)"> </text><text xml:space="preserve" font-family="Avenir-Medium" font-size="28.0" fill="#5B5753" transform="matrix(1.00, 0.00, -0.00, -1.00, 227.5, 548.0)">f</text><text xml:space="preserve" font-family="Avenir-Medium" font-size="28.0" fill="#5B5753" transform="matrix(1.00, 0.00, -0.00, -1.00, 237.4, 548.0)">o</text><text xml:space="preserve" font-family="Avenir-Medium" font-size="28.0" fill="#5B5753" transform="matrix(1.00, 0.00, -0.00, -1.00, 254.6, 548.0)">r</text><text xml:space="preserve" font-family="Avenir-Medium" font-size="28.0" fill="#5B5753" transform="matrix(1.00, 0.00, -0.00, -1.00, 265.5, 548.0)"> </text><text xml:space="preserve" font-family="Avenir-Medium" font-size="28.0" fill="#5B5753" transform="matrix(1.00, 0.00, -0.00, -1.00, 273.8, 548.0)">s</text><text xml:space="preserve" font-family="Avenir-Medium" font-size="28.0" fill="#5B5753" transform="matrix(1.00, 0.00, -0.00, -1.00, 286.8, 548.0)">e</text><text xml:space="preserve" font-family="Avenir-Medium" font-size="28.0" fill="#5B5753" transform="matrix(1.00, 0.00, -0.00, -1.00, 303.0, 548.0)">r</text><text xml:space="preserve" font-family="Avenir-Medium" font-size="28.0" fill="#5B5753" transform="matrix(1.00, 0.00, -0.00, -1.00, 313.9, 548.0)">v</text><text xml:space="preserve" font-family="Avenir-Medium" font-size="28.0" fill="#5B5753" transform="matrix(1.00, 0.00, -0.00, -1.00, 328.4, 548.0)">e</text><text xml:space="preserve" font-family="Avenir-Medium" font-size="28.0" fill="#5B5753" transform="matrix(1.00, 0.00, -0.00, -1.00, 344.6, 548.0)">r</text><text xml:space="preserve" font-family="Avenir-Medium" font-size="28.0" fill="#5B5753" transform="matrix(1.00, 0.00, -0.00, -1.00, 355.5, 548.0)"> </text><text xml:space="preserve" font-family="Avenir-Medium" font-size="28.0" fill="#5B5753" transform="matrix(1.00, 0.00, -0.00, -1.00, 363.8, 548.0)">A</text><text xml:space="preserve" font-family="Avenir-Medium" font-size="28.0" fill="#5B5753" transform="matrix(1.00, 0.00, -0.00, -1.00, 384.1, 548.0)">P</text><text xml:space="preserve" font-family="Avenir-Medium" font-size="28.0" fill="#5B5753" transform="matrix(1.00, 0.00, -0.00, -1.00, 401.3, 548.0)">I</text><text xml:space="preserve" font-family="Avenir-Medium" font-size="28.0" fill="#5B5753" transform="matrix(1.00, 0.00, -0.00, -1.00, 409.6, 548.0)"> </text><text xml:space="preserve" font-family="Avenir-Medium" font-size="28.0" fill="#5B5753" transform="matrix(1.00, 0.00, -0.00, -1.00, 418.0, 548.0)">f</text><text xml:space="preserve" font-family="Avenir-Medium" font-size="28.0" fill="#5B5753" transform="matrix(1.00, 0.00, -0.00, -1.00, 427.8, 548.0)">o</text><text xml:space="preserve" font-family="Avenir-Medium" font-size="28.0" fill="#5B5753" transform="matrix(1.00, 0.00, -0.00, -1.00, 445.0, 548.0)">r</text><text xml:space="preserve" font-family="Avenir-Medium" font-size="28.0" fill="#5B5753" transform="matrix(1.00, 0.00, -0.00, -1.00, 456.0, 548.0)"> </text><text xml:space="preserve" font-family="Avenir-Medium" font-size="28.0" fill="#5B5753" transform="matrix(1.00, 0.00, -0.00, -1.00, 464.3, 548.0)">m</text><text xml:space="preserve" font-family="Avenir-Medium" font-size="28.0" fill="#5B5753" transform="matrix(1.00, 0.00, -0.00, -1.00, 488.7, 548.0)">o</text><text xml:space="preserve" font-family="Avenir-Medium" font-size="28.0" fill="#5B5753" transform="matrix(1.00, 0.00, -0.00, -1.00, 505.9, 548.0)">b</text><text xml:space="preserve" font-family="Avenir-Medium" font-size="28.0" fill="#5B5753" transform="matrix(1.00, 0.00, -0.00, -1.00, 523.6, 548.0)">i</text><text xml:space="preserve" font-family="Avenir-Medium" font-size="28.0" fill="#5B5753" transform="matrix(1.00, 0.00, -0.00, -1.00, 530.9, 548.0)">l</text><text xml:space="preserve" font-family="Avenir-Medium" font-size="28.0" fill="#5B5753" transform="matrix(1.00, 0.00, -0.00, -1.00, 538.1, 548.0)">e</text><text xml:space="preserve" font-family="Avenir-Medium" font-size="28.0" fill="#5B5753" transform="matrix(1.00, 0.00, -0.00, -1.00, 554.3, 548.0)"> </text><text xml:space="preserve" font-family="Avenir-Medium" font-size="28.0" fill="#5B5753" transform="matrix(1.00, 0.00, -0.00, -1.00, 562.6, 548.0)">g</text><text xml:space="preserve" font-family="Avenir-Medium" font-size="28.0" fill="#5B5753" transform="matrix(1.00, 0.00, -0.00, -1.00, 580.3, 548.0)">a</text><text xml:space="preserve" font-family="Avenir-Medium" font-size="28.0" fill="#5B5753" transform="matrix(1.00, 0.00, -0.00, -1.00, 595.4, 548.0)">m</text><text xml:space="preserve" font-family="Avenir-Medium" font-size="28.0" fill="#5B5753" transform="matrix(1.00, 0.00, -0.00, -1.00, 619.8, 548.0)">e</text><text xml:space="preserve" font-family="Avenir-Medium" font-size="28.0" fill="#5B5753" transform="matrix(1.00, 0.00, -0.00, -1.00, 635.9, 548.0)"> </text><text xml:space="preserve" font-family="Avenir-Medium" font-size="28.0" fill="#5B5753" transform="matrix(1.00, 0.00, -0.00, -1.00, 644.3, 548.0)">-</text><text xml:space="preserve" font-family="Avenir-Medium" font-size="28.0" fill="#5B5753" transform="matrix(1.00, 0.00, -0.00, -1.00, 653.7, 548.0)"> </text><text xml:space="preserve" font-family="Avenir-Medium" font-size="28.0" fill="#5B5753" transform="matrix(1.00, 0.00, -0.00, -1.00, 662.0, 548.0)">v</text><text xml:space="preserve" font-family="Avenir-Medium" font-size="28.0" fill="#5B5753" transform="matrix(1.00, 0.00, -0.00, -1.00, 676.6, 548.0)">o</text><text xml:space="preserve" font-family="Avenir-Medium" font-size="28.0" fill="#5B5753" transform="matrix(1.00, 0.00, -0.00, -1.00, 693.8, 548.0)">x</text><text xml:space="preserve" font-family="Avenir-Medium" font-size="28.0" fill="#5B5753" transform="matrix(1.00, 0.00, -0.00, -1.00, 708.9, 548.0)">e</text><text xml:space="preserve" font-family="Avenir-Medium" font-size="28.0" fill="#5B5753" transform="matrix(1.00, 0.00, -0.00, -1.00, 725.0, 548.0)">l</text><text xml:space="preserve" font-family="Avenir-Medium" font-size="28.0" fill="#5B5753" transform="matrix(1.00, 0.00, -0.00, -1.00, 732.3, 548.0)">-</text><text xml:space="preserve" font-family="Avenir-Medium" font-size="28.0" fill="#5B5753" transform="matrix(1.00, 0.00, -0.00, -1.00, 741.7, 548.0)">b</text><text xml:space="preserve" font-family="Avenir-Medium" font-size="28.0" fill="#5B5753" transform="matrix(1.00, 0.00, -0.00, -1.00, 759.3, 548.0)">a</text><text xml:space="preserve" font-family="Avenir-Medium" font-size="28.0" fill="#5B5753" transform="matrix(1.00, 0.00, -0.00, -1.00, 774.4, 548.0)">s</text><text xml:space="preserve" font-family="Avenir-Medium" font-size="28.0" fill="#5B5753" transform="matrix(1.00, 0.00, -0.00, -1.00, 787.4, 548.0)">e</text><text xml:space="preserve" font-family="Avenir-Medium" font-size="28.0" fill="#5B5753" transform="matrix(1.00, 0.00, -0.00, -1.00, 803.5, 548.0)">d</text><text xml:space="preserve" font-family="Avenir-Medium" font-size="28.0" fill="#5B5753" transform="matrix(1.00, 0.00, -0.00, -1.00, 821.2, 548.0)"> </text><text xml:space="preserve" font-family="Avenir-Medium" font-size="28.0" fill="#5B5753" transform="matrix(1.00, 0.00, -0.00, -1.00, 829.6, 548.0)">U</text><text xml:space="preserve" font-family="Avenir-Medium" font-size="28.0" fill="#5B5753" transform="matrix(1.00, 0.00, -0.00, -1.00, 849.8, 548.0)">G</text><text xml:space="preserve" font-family="Avenir-Medium" font-size="28.0" fill="#5B5753" transform="matrix(1.00, 0.00, -0.00, -1.00, 872.2, 548.0)">C</text><text xml:space="preserve" font-family="Avenir-Medium" font-size="28.0" fill="#5B5753" transform="matrix(1.00, 0.00, -0.00, -1.00, 892.4, 548.0)"> </text><text xml:space="preserve" font-family="Avenir-Medium" font-size="28.0" fill="#5B5753" transform="matrix(1.00, 0.00, -0.00, -1.00, 900.8, 548.0)">(</text><text xml:space="preserve" font-family="Avenir-Medium" font-size="28.0" fill="#5B5753" transform="matrix(1.00, 0.00, -0.00, -1.00, 909.1, 548.0)">u</text><text xml:space="preserve" font-family="Avenir-Medium" font-size="28.0" fill="#5B5753" transform="matrix(1.00, 0.00, -0.00, -1.00, 925.3, 548.0)">s</text><text xml:space="preserve" font-family="Avenir-Medium" font-size="28.0" fill="#5B5753" transform="matrix(1.00, 0.00, -0.00, -1.00, 938.3, 548.0)">e</text><text xml:space="preserve" font-family="Avenir-Medium" font-size="28.0" fill="#5B5753" transform="matrix(1.00, 0.00, -0.00, -1.00, 954.4, 548.0)">r</text><text xml:space="preserve" font-family="Avenir-Medium" font-size="28.0" fill="#5B5753" transform="matrix(1.00, 0.00, -0.00, -1.00, 965.3, 548.0)"> </text><text xml:space="preserve" font-family="Avenir-Medium" font-size="28.0" fill="#5B5753" transform="matrix(1.00, 0.00, -0.00, -1.00, 87.0, 510.0)">c</text><text xml:space="preserve" font-family="Avenir-Medium" font-size="28.0" fill="#5B5753" transform="matrix(1.00, 0.00, -0.00, -1.00, 101.1, 510.0)">r</text><text xml:space="preserve" font-family="Avenir-Medium" font-size="28.0" fill="#5B5753" transform="matrix(1.00, 0.00, -0.00, -1.00, 111.5, 510.0)">e</text><text xml:space="preserve" font-family="Avenir-Medium" font-size="28.0" fill="#5B5753" transform="matrix(1.00, 0.00, -0.00, -1.00, 127.6, 510.0)">a</text><text xml:space="preserve" font-family="Avenir-Medium" font-size="28.0" fill="#5B5753" transform="matrix(1.00, 0.00, -0.00, -1.00, 142.7, 510.0)">t</text><text xml:space="preserve" font-family="Avenir-Medium" font-size="28.0" fill="#5B5753" transform="matrix(1.00, 0.00, -0.00, -1.00, 153.6, 510.0)">e</text><text xml:space="preserve" font-family="Avenir-Medium" font-size="28.0" fill="#5B5753" transform="matrix(1.00, 0.00, -0.00, -1.00, 169.7, 510.0)">d</text><text xml:space="preserve" font-family="Avenir-Medium" font-size="28.0" fill="#5B5753" transform="matrix(1.00, 0.00, -0.00, -1.00, 187.4, 510.0)"> </text><text xml:space="preserve" font-family="Avenir-Medium" font-size="28.0" fill="#5B5753" transform="matrix(1.00, 0.00, -0.00, -1.00, 195.8, 510.0)">c</text><text xml:space="preserve" font-family="Avenir-Medium" font-size="28.0" fill="#5B5753" transform="matrix(1.00, 0.00, -0.00, -1.00, 209.8, 510.0)">o</text><text xml:space="preserve" font-family="Avenir-Medium" font-size="28.0" fill="#5B5753" transform="matrix(1.00, 0.00, -0.00, -1.00, 227.0, 510.0)">n</text><text xml:space="preserve" font-family="Avenir-Medium" font-size="28.0" fill="#5B5753" transform="matrix(1.00, 0.00, -0.00, -1.00, 243.1, 510.0)">t</text><text xml:space="preserve" font-family="Avenir-Medium" font-size="28.0" fill="#5B5753" transform="matrix(1.00, 0.00, -0.00, -1.00, 254.0, 510.0)">e</text><text xml:space="preserve" font-family="Avenir-Medium" font-size="28.0" fill="#5B5753" transform="matrix(1.00, 0.00, -0.00, -1.00, 270.2, 510.0)">n</text><text xml:space="preserve" font-family="Avenir-Medium" font-size="28.0" fill="#5B5753" transform="matrix(1.00, 0.00, -0.00, -1.00, 286.3, 510.0)">t</text><text xml:space="preserve" font-family="Avenir-Medium" font-size="28.0" fill="#5B5753" transform="matrix(1.00, 0.00, -0.00, -1.00, 297.2, 510.0)">)</text><text xml:space="preserve" font-family="Avenir-Medium" font-size="28.0" fill="#5B5753" transform="matrix(1.00, 0.00, -0.00, -1.00, 305.6, 510.0)">.</text><text xml:space="preserve" font-family="Avenir-Medium" font-size="21.0" fill="#9A958D" transform="matrix(1.00, 0.00, -0.00, -1.00, 57.0, 440.2)">•</text><text xml:space="preserve" font-family="Avenir-Medium" font-size="28.0" fill="#5B5753" transform="matrix(1.00, 0.00, -0.00, -1.00, 87.0, 438.0)">S</text><text xml:space="preserve" font-family="Avenir-Medium" font-size="28.0" fill="#5B5753" transform="matrix(1.00, 0.00, -0.00, -1.00, 103.1, 438.0)">t</text><text xml:space="preserve" font-family="Avenir-Medium" font-size="28.0" fill="#5B5753" transform="matrix(1.00, 0.00, -0.00, -1.00, 114.0, 438.0)">o</text><text xml:space="preserve" font-family="Avenir-Medium" font-size="28.0" fill="#5B5753" transform="matrix(1.00, 0.00, -0.00, -1.00, 131.2, 438.0)">r</text><text xml:space="preserve" font-family="Avenir-Medium" font-size="28.0" fill="#5B5753" transform="matrix(1.00, 0.00, -0.00, -1.00, 141.7, 438.0)">e</text><text xml:space="preserve" font-family="Avenir-Medium" font-size="28.0" fill="#5B5753" transform="matrix(1.00, 0.00, -0.00, -1.00, 157.8, 438.0)"> </text><text xml:space="preserve" font-family="Avenir-Medium" font-size="28.0" fill="#5B5753" transform="matrix(1.00, 0.00, -0.00, -1.00, 166.1, 438.0)">g</text><text xml:space="preserve" font-family="Avenir-Medium" font-size="28.0" fill="#5B5753" transform="matrix(1.00, 0.00, -0.00, -1.00, 183.8, 438.0)">a</text><text xml:space="preserve" font-family="Avenir-Medium" font-size="28.0" fill="#5B5753" transform="matrix(1.00, 0.00, -0.00, -1.00, 198.9, 438.0)">m</text><text xml:space="preserve" font-family="Avenir-Medium" font-size="28.0" fill="#5B5753" transform="matrix(1.00, 0.00, -0.00, -1.00, 223.3, 438.0)">e</text><text xml:space="preserve" font-family="Avenir-Medium" font-size="28.0" fill="#5B5753" transform="matrix(1.00, 0.00, -0.00, -1.00, 239.4, 438.0)"> </text><text xml:space="preserve" font-family="Avenir-Medium" font-size="28.0" fill="#5B5753" transform="matrix(1.00, 0.00, -0.00, -1.00, 247.8, 438.0)">d</text><text xml:space="preserve" font-family="Avenir-Medium" font-size="28.0" fill="#5B5753" transform="matrix(1.00, 0.00, -0.00, -1.00, 265.4, 438.0)">a</text><text xml:space="preserve" font-family="Avenir-Medium" font-size="28.0" fill="#5B5753" transform="matrix(1.00, 0.00, -0.00, -1.00, 280.5, 438.0)">t</text><text xml:space="preserve" font-family="Avenir-Medium" font-size="28.0" fill="#5B5753" transform="matrix(1.00, 0.00, -0.00, -1.00, 291.5, 438.0)">a</text><text xml:space="preserve" font-family="Avenir-Medium" font-size="28.0" fill="#5B5753" transform="matrix(1.00, 0.00, -0.00, -1.00, 306.5, 438.0)"> </text><text xml:space="preserve" font-family="Avenir-Medium" font-size="28.0" fill="#5B5753" transform="matrix(1.00, 0.00, -0.00, -1.00, 314.9, 438.0)">(</text><text xml:space="preserve" font-family="Avenir-Medium" font-size="28.0" fill="#5B5753" transform="matrix(1.00, 0.00, -0.00, -1.00, 323.2, 438.0)">b</text><text xml:space="preserve" font-family="Avenir-Medium" font-size="28.0" fill="#5B5753" transform="matrix(1.00, 0.00, -0.00, -1.00, 340.9, 438.0)">i</text><text xml:space="preserve" font-family="Avenir-Medium" font-size="28.0" fill="#5B5753" transform="matrix(1.00, 0.00, -0.00, -1.00, 348.2, 438.0)">n</text><text xml:space="preserve" font-family="Avenir-Medium" font-size="28.0" fill="#5B5753" transform="matrix(1.00, 0.00, -0.00, -1.00, 364.3, 438.0)">a</text><text xml:space="preserve" font-family="Avenir-Medium" font-size="28.0" fill="#5B5753" transform="matrix(1.00, 0.00, -0.00, -1.00, 379.4, 438.0)">r</text><text xml:space="preserve" font-family="Avenir-Medium" font-size="28.0" fill="#5B5753" transform="matrix(1.00, 0.00, -0.00, -1.00, 390.3, 438.0)">y</text><text xml:space="preserve" font-family="Avenir-Medium" font-size="28.0" fill="#5B5753" transform="matrix(1.00, 0.00, -0.00, -1.00, 404.9, 438.0)">)</text><text xml:space="preserve" font-family="Avenir-Medium" font-size="28.0" fill="#5B5753" transform="matrix(1.00, 0.00, -0.00, -1.00, 413.2, 438.0)">,</text><text xml:space="preserve" font-family="Avenir-Medium" font-size="28.0" fill="#5B5753" transform="matrix(1.00, 0.00, -0.00, -1.00, 421.6, 438.0)"> </text><text xml:space="preserve" font-family="Avenir-Medium" font-size="28.0" fill="#5B5753" transform="matrix(1.00, 0.00, -0.00, -1.00, 429.9, 438.0)">t</text><text xml:space="preserve" font-family="Avenir-Medium" font-size="28.0" fill="#5B5753" transform="matrix(1.00, 0.00, -0.00, -1.00, 440.8, 438.0)">h</text><text xml:space="preserve" font-family="Avenir-Medium" font-size="28.0" fill="#5B5753" transform="matrix(1.00, 0.00, -0.00, -1.00, 457.0, 438.0)">u</text><text xml:space="preserve" font-family="Avenir-Medium" font-size="28.0" fill="#5B5753" transform="matrix(1.00, 0.00, -0.00, -1.00, 473.1, 438.0)">m</text><text xml:space="preserve" font-family="Avenir-Medium" font-size="28.0" fill="#5B5753" transform="matrix(1.00, 0.00, -0.00, -1.00, 497.5, 438.0)">b</text><text xml:space="preserve" font-family="Avenir-Medium" font-size="28.0" fill="#5B5753" transform="matrix(1.00, 0.00, -0.00, -1.00, 515.2, 438.0)">n</text><text xml:space="preserve" font-family="Avenir-Medium" font-size="28.0" fill="#5B5753" transform="matrix(1.00, 0.00, -0.00, -1.00, 531.3, 438.0)">a</text><text xml:space="preserve" font-family="Avenir-Medium" font-size="28.0" fill="#5B5753" transform="matrix(1.00, 0.00, -0.00, -1.00, 546.4, 438.0)">i</text><text xml:space="preserve" font-family="Avenir-Medium" font-size="28.0" fill="#5B5753" transform="matrix(1.00, 0.00, -0.00, -1.00, 553.7, 438.0)">l</text><text xml:space="preserve" font-family="Avenir-Medium" font-size="28.0" fill="#5B5753" transform="matrix(1.00, 0.00, -0.00, -1.00, 561.0, 438.0)">s</text><text xml:space="preserve" font-family="Avenir-Medium" font-size="28.0" fill="#5B5753" transform="matrix(1.00, 0.00, -0.00, -1.00, 573.9, 438.0)">,</text><text xml:space="preserve" font-family="Avenir-Medium" font-size="28.0" fill="#5B5753" transform="matrix(1.00, 0.00, -0.00, -1.00, 582.3, 438.0)"> </text><text xml:space="preserve" font-family="Avenir-Medium" font-size="28.0" fill="#5B5753" transform="matrix(1.00, 0.00, -0.00, -1.00, 590.6, 438.0)">m</text><text xml:space="preserve" font-family="Avenir-Medium" font-size="28.0" fill="#5B5753" transform="matrix(1.00, 0.00, -0.00, -1.00, 615.1, 438.0)">e</text><text xml:space="preserve" font-family="Avenir-Medium" font-size="28.0" fill="#5B5753" transform="matrix(1.00, 0.00, -0.00, -1.00, 631.2, 438.0)">t</text><text xml:space="preserve" font-family="Avenir-Medium" font-size="28.0" fill="#5B5753" transform="matrix(1.00, 0.00, -0.00, -1.00, 642.1, 438.0)">a</text><text xml:space="preserve" font-family="Avenir-Medium" font-size="28.0" fill="#5B5753" transform="matrix(1.00, 0.00, -0.00, -1.00, 657.2, 438.0)">d</text><text xml:space="preserve" font-family="Avenir-Medium" font-size="28.0" fill="#5B5753" transform="matrix(1.00, 0.00, -0.00, -1.00, 674.9, 438.0)">a</text><text xml:space="preserve" font-family="Avenir-Medium" font-size="28.0" fill="#5B5753" transform="matrix(1.00, 0.00, -0.00, -1.00, 690.0, 438.0)">t</text><text xml:space="preserve" font-family="Avenir-Medium" font-size="28.0" fill="#5B5753" transform="matrix(1.00, 0.00, -0.00, -1.00, 700.9, 438.0)">a</text><text xml:space="preserve" font-family="Avenir-Medium" font-size="21.0" fill="#9A958D" transform="matrix(1.00, 0.00, -0.00, -1.00, 57.0, 368.2)">•</text><text xml:space="preserve" font-family="Avenir-Medium" font-size="28.0" fill="#5B5753" transform="matrix(1.00, 0.00, -0.00, -1.00, 87.0, 366.0)">B</text><text xml:space="preserve" font-family="Avenir-Medium" font-size="28.0" fill="#5B5753" transform="matrix(1.00, 0.00, -0.00, -1.00, 105.2, 366.0)">a</text><text xml:space="preserve" font-family="Avenir-Medium" font-size="28.0" fill="#5B5753" transform="matrix(1.00, 0.00, -0.00, -1.00, 120.3, 366.0)">s</text><text xml:space="preserve" font-family="Avenir-Medium" font-size="28.0" fill="#5B5753" transform="matrix(1.00, 0.00, -0.00, -1.00, 133.3, 366.0)">i</text><text xml:space="preserve" font-family="Avenir-Medium" font-size="28.0" fill="#5B5753" transform="matrix(1.00, 0.00, -0.00, -1.00, 140.6, 366.0)">c</text><text xml:space="preserve" font-family="Avenir-Medium" font-size="28.0" fill="#5B5753" transform="matrix(1.00, 0.00, -0.00, -1.00, 154.6, 366.0)"> </text><text xml:space="preserve" font-family="Avenir-Medium" font-size="28.0" fill="#5B5753" transform="matrix(1.00, 0.00, -0.00, -1.00, 163.0, 366.0)">s</text><text xml:space="preserve" font-family="Avenir-Medium" font-size="28.0" fill="#5B5753" transform="matrix(1.00, 0.00, -0.00, -1.00, 176.0, 366.0)">o</text><text xml:space="preserve" font-family="Avenir-Medium" font-size="28.0" fill="#5B5753" transform="matrix(1.00, 0.00, -0.00, -1.00, 193.1, 366.0)">c</text><text xml:space="preserve" font-family="Avenir-Medium" font-size="28.0" fill="#5B5753" transform="matrix(1.00, 0.00, -0.00, -1.00, 207.2, 366.0)">i</text><text xml:space="preserve" font-family="Avenir-Medium" font-size="28.0" fill="#5B5753" transform="matrix(1.00, 0.00, -0.00, -1.00, 214.5, 366.0)">a</text><text xml:space="preserve" font-family="Avenir-Medium" font-size="28.0" fill="#5B5753" transform="matrix(1.00, 0.00, -0.00, -1.00, 229.6, 366.0)">l</text><text xml:space="preserve" font-family="Avenir-Medium" font-size="28.0" fill="#5B5753" transform="matrix(1.00, 0.00, -0.00, -1.00, 236.9, 366.0)"> </text><text xml:space="preserve" font-family="Avenir-Medium" font-size="28.0" fill="#5B5753" transform="matrix(1.00, 0.00, -0.00, -1.00, 245.2, 366.0)">d</text><text xml:space="preserve" font-family="Avenir-Medium" font-size="28.0" fill="#5B5753" transform="matrix(1.00, 0.00, -0.00, -1.00, 262.9, 366.0)">a</text><text xml:space="preserve" font-family="Avenir-Medium" font-size="28.0" fill="#5B5753" transform="matrix(1.00, 0.00, -0.00, -1.00, 278.0, 366.0)">t</text><text xml:space="preserve" font-family="Avenir-Medium" font-size="28.0" fill="#5B5753" transform="matrix(1.00, 0.00, -0.00, -1.00, 288.9, 366.0)">a</text><text xml:space="preserve" font-family="Avenir-Medium" font-size="28.0" fill="#5B5753" transform="matrix(1.00, 0.00, -0.00, -1.00, 304.0, 366.0)"> </text><text xml:space="preserve" font-family="Avenir-Medium" font-size="28.0" fill="#5B5753" transform="matrix(1.00, 0.00, -0.00, -1.00, 312.3, 366.0)">(</text><text xml:space="preserve" font-family="Avenir-Medium" font-size="28.0" fill="#5B5753" transform="matrix(1.00, 0.00, -0.00, -1.00, 320.7, 366.0)">u</text><text xml:space="preserve" font-family="Avenir-Medium" font-size="28.0" fill="#5B5753" transform="matrix(1.00, 0.00, -0.00, -1.00, 336.8, 366.0)">s</text><text xml:space="preserve" font-family="Avenir-Medium" font-size="28.0" fill="#5B5753" transform="matrix(1.00, 0.00, -0.00, -1.00, 349.8, 366.0)">e</text><text xml:space="preserve" font-family="Avenir-Medium" font-size="28.0" fill="#5B5753" transform="matrix(1.00, 0.00, -0.00, -1.00, 365.9, 366.0)">r</text><text xml:space="preserve" font-family="Avenir-Medium" font-size="28.0" fill="#5B5753" transform="matrix(1.00, 0.00, -0.00, -1.00, 376.8, 366.0)">s</text><text xml:space="preserve" font-family="Avenir-Medium" font-size="28.0" fill="#5B5753" transform="matrix(1.00, 0.00, -0.00, -1.00, 389.8, 366.0)">,</text><text xml:space="preserve" font-family="Avenir-Medium" font-size="28.0" fill="#5B5753" transform="matrix(1.00, 0.00, -0.00, -1.00, 398.2, 366.0)"> </text><text xml:space="preserve" font-family="Avenir-Medium" font-size="28.0" fill="#5B5753" transform="matrix(1.00, 0.00, -0.00, -1.00, 406.5, 366.0)">f</text><text xml:space="preserve" font-family="Avenir-Medium" font-size="28.0" fill="#5B5753" transform="matrix(1.00, 0.00, -0.00, -1.00, 416.4, 366.0)">a</text><text xml:space="preserve" font-family="Avenir-Medium" font-size="28.0" fill="#5B5753" transform="matrix(1.00, 0.00, -0.00, -1.00, 431.5, 366.0)">v</text><text xml:space="preserve" font-family="Avenir-Medium" font-size="28.0" fill="#5B5753" transform="matrix(1.00, 0.00, -0.00, -1.00, 446.0, 366.0)">o</text><text xml:space="preserve" font-family="Avenir-Medium" font-size="28.0" fill="#5B5753" transform="matrix(1.00, 0.00, -0.00, -1.00, 463.2, 366.0)">r</text><text xml:space="preserve" font-family="Avenir-Medium" font-size="28.0" fill="#5B5753" transform="matrix(1.00, 0.00, -0.00, -1.00, 474.2, 366.0)">i</text><text xml:space="preserve" font-family="Avenir-Medium" font-size="28.0" fill="#5B5753" transform="matrix(1.00, 0.00, -0.00, -1.00, 481.4, 366.0)">t</text><text xml:space="preserve" font-family="Avenir-Medium" font-size="28.0" fill="#5B5753" transform="matrix(1.00, 0.00, -0.00, -1.00, 492.4, 366.0)">e</text><text xml:space="preserve" font-family="Avenir-Medium" font-size="28.0" fill="#5B5753" transform="matrix(1.00, 0.00, -0.00, -1.00, 508.5, 366.0)">s</text><text xml:space="preserve" font-family="Avenir-Medium" font-size="28.0" fill="#5B5753" transform="matrix(1.00, 0.00, -0.00, -1.00, 521.5, 366.0)">,</text><text xml:space="preserve" font-family="Avenir-Medium" font-size="28.0" fill="#5B5753" transform="matrix(1.00, 0.00, -0.00, -1.00, 529.8, 366.0)"> </text><text xml:space="preserve" font-family="Avenir-Medium" font-size="28.0" fill="#5B5753" transform="matrix(1.00, 0.00, -0.00, -1.00, 538.2, 366.0)">p</text><text xml:space="preserve" font-family="Avenir-Medium" font-size="28.0" fill="#5B5753" transform="matrix(1.00, 0.00, -0.00, -1.00, 555.8, 366.0)">l</text><text xml:space="preserve" font-family="Avenir-Medium" font-size="28.0" fill="#5B5753" transform="matrix(1.00, 0.00, -0.00, -1.00, 563.1, 366.0)">a</text><text xml:space="preserve" font-family="Avenir-Medium" font-size="28.0" fill="#5B5753" transform="matrix(1.00, 0.00, -0.00, -1.00, 578.2, 366.0)">y</text><text xml:space="preserve" font-family="Avenir-Medium" font-size="28.0" fill="#5B5753" transform="matrix(1.00, 0.00, -0.00, -1.00, 592.8, 366.0)"> </text><text xml:space="preserve" font-family="Avenir-Medium" font-size="28.0" fill="#5B5753" transform="matrix(1.00, 0.00, -0.00, -1.00, 601.1, 366.0)">h</text><text xml:space="preserve" font-family="Avenir-Medium" font-size="28.0" fill="#5B5753" transform="matrix(1.00, 0.00, -0.00, -1.00, 617.2, 366.0)">i</text><text xml:space="preserve" font-family="Avenir-Medium" font-size="28.0" fill="#5B5753" transform="matrix(1.00, 0.00, -0.00, -1.00, 624.5, 366.0)">s</text><text xml:space="preserve" font-family="Avenir-Medium" font-size="28.0" fill="#5B5753" transform="matrix(1.00, 0.00, -0.00, -1.00, 637.5, 366.0)">t</text><text xml:space="preserve" font-family="Avenir-Medium" font-size="28.0" fill="#5B5753" transform="matrix(1.00, 0.00, -0.00, -1.00, 648.4, 366.0)">o</text><text xml:space="preserve" font-family="Avenir-Medium" font-size="28.0" fill="#5B5753" transform="matrix(1.00, 0.00, -0.00, -1.00, 665.6, 366.0)">r</text><text xml:space="preserve" font-family="Avenir-Medium" font-size="28.0" fill="#5B5753" transform="matrix(1.00, 0.00, -0.00, -1.00, 676.5, 366.0)">y</text><text xml:space="preserve" font-family="Avenir-Medium" font-size="28.0" fill="#5B5753" transform="matrix(1.00, 0.00, -0.00, -1.00, 689.0, 366.0)">,</text><text xml:space="preserve" font-family="Avenir-Medium" font-size="28.0" fill="#5B5753" transform="matrix(1.00, 0.00, -0.00, -1.00, 697.4, 366.0)"> </text><text xml:space="preserve" font-family="Avenir-Medium" font-size="28.0" fill="#5B5753" transform="matrix(1.00, 0.00, -0.00, -1.00, 705.7, 366.0)">c</text><text xml:space="preserve" font-family="Avenir-Medium" font-size="28.0" fill="#5B5753" transform="matrix(1.00, 0.00, -0.00, -1.00, 719.8, 366.0)">o</text><text xml:space="preserve" font-family="Avenir-Medium" font-size="28.0" fill="#5B5753" transform="matrix(1.00, 0.00, -0.00, -1.00, 737.0, 366.0)">m</text><text xml:space="preserve" font-family="Avenir-Medium" font-size="28.0" fill="#5B5753" transform="matrix(1.00, 0.00, -0.00, -1.00, 761.4, 366.0)">m</text><text xml:space="preserve" font-family="Avenir-Medium" font-size="28.0" fill="#5B5753" transform="matrix(1.00, 0.00, -0.00, -1.00, 785.8, 366.0)">e</text><text xml:space="preserve" font-family="Avenir-Medium" font-size="28.0" fill="#5B5753" transform="matrix(1.00, 0.00, -0.00, -1.00, 801.9, 366.0)">n</text><text xml:space="preserve" font-family="Avenir-Medium" font-size="28.0" fill="#5B5753" transform="matrix(1.00, 0.00, -0.00, -1.00, 818.1, 366.0)">t</text><text xml:space="preserve" font-family="Avenir-Medium" font-size="28.0" fill="#5B5753" transform="matrix(1.00, 0.00, -0.00, -1.00, 829.0, 366.0)">s</text><text xml:space="preserve" font-family="Avenir-Medium" font-size="28.0" fill="#5B5753" transform="matrix(1.00, 0.00, -0.00, -1.00, 842.0, 366.0)">)</text></g></svg>