<?xml version="1.0" encoding="UTF-8" standalone="no"?><svg xmlns="http://www.w3.org/2000/svg" xmlns:xlink="http://www.w3.org/1999/xlink" clip-rule="evenodd" stroke-miterlimit="4.00" viewBox="0 0 910 68"><desc>SVG generated by Keynote</desc><defs></defs><g transform="matrix(1.00, 0.00, -0.00, -1.00, 0.0, 68.0)"><text xml:space="preserve" font-family="Avenir-Medium" font-size="21.0" fill="#9A958D" transform="matrix(1.00, 0.00, -0.00, -1.00, 0.0, 46.2)">•</text><text xml:space="preserve" font-family="Avenir-Medium" font-size="28.0" fill="#5B5753" transform="matrix(1.00, 0.00, -0.00, -1.00, 30.0, 44.0)">P</text><text xml:space="preserve" font-family="Avenir-Medium" font-size="28.0" fill="#5B5753" transform="matrix(1.00, 0.00, -0.00, -1.00, 47.2, 44.0)">r</text><text xml:space="preserve" font-family="Avenir-Medium" font-size="28.0" fill="#5B5753" transform="matrix(1.00, 0.00, -0.00, -1.00, 57.6, 44.0)">o</text><text xml:space="preserve" font-family="Avenir-Medium" font-size="28.0" fill="#5B5753" transform="matrix(1.00, 0.00, -0.00, -1.00, 74.8, 44.0)">t</text><text xml:space="preserve" font-family="Avenir-Medium" font-size="28.0" fill="#5B5753" transform="matrix(1.00, 0.00, -0.00, -1.00, 85.7, 44.0)">o</text><text xml:space="preserve" font-family="Avenir-Medium" font-size="28.0" fill="#5B5753" transform="matrix(1.00, 0.00, -0.00, -1.00, 102.9, 44.0)">t</text><text xml:space="preserve" font-family="Avenir-Medium" font-size="28.0" fill="#5B5753" transform="matrix(1.00, 0.00, -0.00, -1.00, 113.8, 44.0)">y</text><text xml:space="preserve" font-family="Avenir-Medium" font-size="28.0" fill="#5B5753" transform="matrix(1.00, 0.00, -0.00, -1.00, 128.4, 44.0)">p</text><text xml:space="preserve" font-family="Avenir-Medium" font-size="28.0" fill="#5B5753" transform="matrix(1.00, 0.00, -0.00, -1.00, 146.0, 44.0)">e</text><text xml:space="preserve" font-family="Avenir-Medium" font-size="28.0" fill="#5B5753" transform="matrix(1.00, 0.00, -0.00, -1.00, 162.2, 44.0)"> </text><text xml:space="preserve" font-family="Avenir-Medium" font-size="28.0" fill="#5B5753" transform="matrix(1.00, 0.00, -0.00, -1.00, 170.5, 44.0)">f</text><text xml:space="preserve" font-family="Avenir-Medium" font-size="28.0" fill="#5B5753" transform="matrix(1.00, 0.00, -0.00, -1.00, 180.4, 44.0)">o</text><text xml:space="preserve" font-family="Avenir-Medium" font-size="28.0" fill="#5B5753" transform="matrix(1.00, 0.00, -0.00, -1.00, 197.6, 44.0)">r</text><text xml:space="preserve" font-family="Avenir-Medium" font-size="28.0" fill="#5B5753" transform="matrix(1.00, 0.00, -0.00, -1.00, 208.5, 44.0)"> </text><text xml:space="preserve" font-family="Avenir-Medium" font-size="28.0" fill="#5B5753" transform="matrix(1.00, 0.00, -0.00, -1.00, 216.8, 44.0)">s</text><text xml:space="preserve" font-family="Avenir-Medium" font-size="28.0" fill="#5B5753" transform="matrix(1.00, 0.00, -0.00, -1.00, 229.8, 44.0)">e</text><text xml:space="preserve" font-family="Avenir-Medium" font-size="28.0" fill="#5B5753" transform="matrix(1.00, 0.00, -0.00, -1.00, 246.0, 44.0)">r</text><text xml:space="preserve" font-family="Avenir-Medium" font-size="28.0" fill="#5B5753" transform="matrix(1.00, 0.00, -0.00, -1.00, 256.9, 44.0)">v</text><text xml:space="preserve" font-family="Avenir-Medium" font-size="28.0" fill="#5B5753" transform="matrix(1.00, 0.00, -0.00, -1.00, 271.4, 44.0)">e</text><text xml:space="preserve" font-family="Avenir-Medium" font-size="28.0" fill="#5B5753" transform="matrix(1.00, 0.00, -0.00, -1.00, 287.6, 44.0)">r</text><text xml:space="preserve" font-family="Avenir-Medium" font-size="28.0" fill="#5B5753" transform="matrix(1.00, 0.00, -0.00, -1.00, 298.5, 44.0)"> </text><text xml:space="preserve" font-family="Avenir-Medium" font-size="28.0" fill="#5B5753" transform="matrix(1.00, 0.00, -0.00, -1.00, 306.8, 44.0)">A</text><text xml:space="preserve" font-family="Avenir-Medium" font-size="28.0" fill="#5B5753" transform="matrix(1.00, 0.00, -0.00, -1.00, 327.1, 44.0)">P</text><text xml:space="preserve" font-family="Avenir-Medium" font-size="28.0" fill="#5B5753" transform="matrix(1.00, 0.00, -0.00, -1.00, 344.3, 44.0)">I</text><text xml:space="preserve" font-family="Avenir-Medium" font-size="28.0" fill="#5B5753" transform="matrix(1.00, 0.00, -0.00, -1.00, 352.6, 44.0)"> </text><text xml:space="preserve" font-family="Avenir-Medium" font-size="28.0" fill="#5B5753" transform="matrix(1.00, 0.00, -0.00, -1.00, 361.0, 44.0)">f</text><text xml:space="preserve" font-family="Avenir-Medium" font-size="28.0" fill="#5B5753" transform="matrix(1.00, 0.00, -0.00, -1.00, 370.8, 44.0)">o</text><text xml:space="preserve" font-family="Avenir-Medium" font-size="28.0" fill="#5B5753" transform="matrix(1.00, 0.00, -0.00, -1.00, 388.0, 44.0)">r</text><text xml:space="preserve" font-family="Avenir-Medium" font-size="28.0" fill="#5B5753" transform="matrix(1.00, 0.00, -0.00, -1.00, 399.0, 44.0)"> </text><text xml:space="preserve" font-family="Avenir-Medium" font-size="28.0" fill="#5B5753" transform="matrix(1.00, 0.00, -0.00, -1.00, 407.3, 44.0)">m</text><text xml:space="preserve" font-family="Avenir-Medium" font-size="28.0" fill="#5B5753" transform="matrix(1.00, 0.00, -0.00, -1.00, 431.7, 44.0)">o</text><text xml:space="preserve" font-family="Avenir-Medium" font-size="28.0" fill="#5B5753" transform="matrix(1.00, 0.00, -0.00, -1.00, 448.9, 44.0)">b</text><text xml:space="preserve" font-family="Avenir-Medium" font-size="28.0" fill="#5B5753" transform="matrix(1.00, 0.00, -0.00, -1.00, 466.6, 44.0)">i</text><text xml:space="preserve" font-family="Avenir-Medium" font-size="28.0" fill="#5B5753" transform="matrix(1.00, 0.00, -0.00, -1.00, 473.9, 44.0)">l</text><text xml:space="preserve" font-family="Avenir-Medium" font-size="28.0" fill="#5B5753" transform="matrix(1.00, 0.00, -0.00, -1.00, 481.1, 44.0)">e</text><text xml:space="preserve" font-family="Avenir-Medium" font-size="28.0" fill="#5B5753" transform="matrix(1.00, 0.00, -0.00, -1.00, 497.3, 44.0)"> </text><text xml:space="preserve" font-family="Avenir-Medium" font-size="28.0" fill="#5B5753" transform="matrix(1.00, 0.00, -0.00, -1.00, 505.6, 44.0)">g</text><text xml:space="preserve" font-family="Avenir-Medium" font-size="28.0" fill="#5B5753" transform="matrix(1.00, 0.00, -0.00, -1.00, 523.3, 44.0)">a</text><text xml:space="preserve" font-family="Avenir-Medium" font-size="28.0" fill="#5B5753" transform="matrix(1.00, 0.00, -0.00, -1.00, 538.4, 44.0)">m</text><text xml:space="preserve" font-family="Avenir-Medium" font-size="28.0" fill="#5B5753" transform="matrix(1.00, 0.00, -0.00, -1.00, 562.8, 44.0)">e</text><text xml:space="preserve" font-family="Avenir-Medium" font-size="28.0" fill="#5B5753" transform="matrix(1.00, 0.00, -0.00, -1.00, 578.9, 44.0)"> </text><text xml:space="preserve" font-family="Avenir-Medium" font-size="28.0" fill="#5B5753" transform="matrix(1.00, 0.00, -0.00, -1.00, 587.3, 44.0)">-</text><text xml:space="preserve" font-family="Avenir-Medium" font-size="28.0" fill="#5B5753" transform="matrix(1.00, 0.00, -0.00, -1.00, 596.7, 44.0)"> </text><text xml:space="preserve" font-family="Avenir-Medium" font-size="28.0" fill="#5B5753" transform="matrix(1.00, 0.00, -0.00, -1.00, 605.0, 44.0)">v</text><text xml:space="preserve" font-family="Avenir-Medium" font-size="28.0" fill="#5B5753" transform="matrix(1.00, 0.00, -0.00, -1.00, 619.6, 44.0)">o</text><text xml:space="preserve" font-family="Avenir-Medium" font-size="28.0" fill="#5B5753" transform="matrix(1.00, 0.00, -0.00, -1.00, 636.8, 44.0)">x</text><text xml:space="preserve" font-family="Avenir-Medium" font-size="28.0" fill="#5B5753" transform="matrix(1.00, 0.00, -0.00, -1.00, 651.9, 44.0)">e</text><text xml:space="preserve" font-family="Avenir-Medium" font-size="28.0" fill="#5B5753" transform="matrix(1.00, 0.00, -0.00, -1.00, 668.0, 44.0)">l</text><text xml:space="preserve" font-family="Avenir-Medium" font-size="28.0" fill="#5B5753" transform="matrix(1.00, 0.00, -0.00, -1.00, 675.3, 44.0)">-</text><text xml:space="preserve" font-family="Avenir-Medium" font-size="28.0" fill="#5B5753" transform="matrix(1.00, 0.00, -0.00, -1.00, 684.7, 44.0)">b</text><text xml:space="preserve" font-family="Avenir-Medium" font-size="28.0" fill="#5B5753" transform="matrix(1.00, 0.00, -0.00, -1.00, 702.3, 44.0)">a</text><text xml:space="preserve" font-family="Avenir-Medium" font-size="28.0" fill="#5B5753" transform="matrix(1.00, 0.00, -0.00, -1.00, 717.4, 44.0)">s</text><text xml:space="preserve" font-family="Avenir-Medium" font-size="28.0" fill="#5B5753" transform="matrix(1.00, 0.00, -0.00, -1.00, 730.4, 44.0)">e</text><text xml:space="preserve" font-family="Avenir-Medium" font-size="28.0" fill="#5B5753" transform="matrix(1.00, 0.00, -0.00, -1.00, 746.5, 44.0)">d</text><text xml:space="preserve" font-family="Avenir-Medium" font-size="28.0" fill="#5B5753" transform="matrix(1.00, 0.00, -0.00, -1.00, 764.2, 44.0)"> </text><text xml:space="preserve" font-family="Avenir-Medium" font-size="28.0" fill="#5B5753" transform="matrix(1.00, 0.00, -0.00, -1.00, 772.6, 44.0)">U</text><text xml:space="preserve" font-family="Avenir-Medium" font-size="28.0" fill="#5B5753" transform="matrix(1.00, 0.00, -0.00, -1.00, 792.8, 44.0)">G</text><text xml:space="preserve" font-family="Avenir-Medium" font-size="28.0" fill="#5B5753" transform="matrix(1.00, 0.00, -0.00, -1.00, 815.2, 44.0)">C</text><text xml:space="preserve" font-family="Avenir-Medium" font-size="28.0" fill="#5B5753" transform="matrix(1.00, 0.00, -0.00, -1.00, 835.4, 44.0)"> </text><text xml:space="preserve" font-family="Avenir-Medium" font-size="28.0" fill="#5B5753" transform="matrix(1.00, 0.00, -0.00, -1.00, 843.8, 44.0)">(</text><text xml:space="preserve" font-family="Avenir-Medium" font-size="28.0" fill="#5B5753" transform="matrix(1.00, 0.00, -0.00, -1.00, 852.1, 44.0)">u</text><text xml:space="preserve" font-family="Avenir-Medium" font-size="28.0" fill="#5B5753" transform="matrix(1.00, 0.00, -0.00, -1.00, 868.3, 44.0)">s</text><text xml:space="preserve" font-family="Avenir-Medium" font-size="28.0" fill="#5B5753" transform="matrix(1.00, 0.00, -0.00, -1.00, 881.3, 44.0)">e</text><text xml:space="preserve" font-family="Avenir-Medium" font-size="28.0" fill="#5B5753" transform="matrix(1.00, 0.00, -0.00, -1.00, 897.4, 44.0)">r</text><text xml:space="preserve" font-family="Avenir-Medium" font-size="28.0" fill="#5B5753" transform="matrix(1.00, 0.00, -0.00, -1.00, 908.3, 44.0)"> </text><text xml:space="preserve" font-family="Avenir-Medium" font-size="28.0" fill="#5B5753" transform="matrix(1.00, 0.00, -0.00, -1.00, 30.0, 6.0)">c</text><text xml:space="preserve" font-family="Avenir-Medium" font-size="28.0" fill="#5B5753" transform="matrix(1.00, 0.00, -0.00, -1.00, 44.1, 6.0)">r</text><text xml:space="preserve" font-family="Avenir-Medium" font-size="28.0" fill="#5B5753" transform="matrix(1.00, 0.00, -0.00, -1.00, 54.5, 6.0)">e</text><text xml:space="preserve" font-family="Avenir-Medium" font-size="28.0" fill="#5B5753" transform="matrix(1.00, 0.00, -0.00, -1.00, 70.6, 6.0)">a</text><text xml:space="preserve" font-family="Avenir-Medium" font-size="28.0" fill="#5B5753" transform="matrix(1.00, 0.00, -0.00, -1.00, 85.7, 6.0)">t</text><text xml:space="preserve" font-family="Avenir-Medium" font-size="28.0" fill="#5B5753" transform="matrix(1.00, 0.00, -0.00, -1.00, 96.6, 6.0)">e</text><text xml:space="preserve" font-family="Avenir-Medium" font-size="28.0" fill="#5B5753" transform="matrix(1.00, 0.00, -0.00, -1.00, 112.7, 6.0)">d</text><text xml:space="preserve" font-family="Avenir-Medium" font-size="28.0" fill="#5B5753" transform="matrix(1.00, 0.00, -0.00, -1.00, 130.4, 6.0)"> </text><text xml:space="preserve" font-family="Avenir-Medium" font-size="28.0" fill="#5B5753" transform="matrix(1.00, 0.00, -0.00, -1.00, 138.8, 6.0)">c</text><text xml:space="preserve" font-family="Avenir-Medium" font-size="28.0" fill="#5B5753" transform="matrix(1.00, 0.00, -0.00, -1.00, 152.8, 6.0)">o</text><text xml:space="preserve" font-family="Avenir-Medium" font-size="28.0" fill="#5B5753" transform="matrix(1.00, 0.00, -0.00, -1.00, 170.0, 6.0)">n</text><text xml:space="preserve" font-family="Avenir-Medium" font-size="28.0" fill="#5B5753" transform="matrix(1.00, 0.00, -0.00, -1.00, 186.1, 6.0)">t</text><text xml:space="preserve" font-family="Avenir-Medium" font-size="28.0" fill="#5B5753" transform="matrix(1.00, 0.00, -0.00, -1.00, 197.0, 6.0)">e</text><text xml:space="preserve" font-family="Avenir-Medium" font-size="28.0" fill="#5B5753" transform="matrix(1.00, 0.00, -0.00, -1.00, 213.2, 6.0)">n</text><text xml:space="preserve" font-family="Avenir-Medium" font-size="28.0" fill="#5B5753" transform="matrix(1.00, 0.00, -0.00, -1.00, 229.3, 6.0)">t</text><text xml:space="preserve" font-family="Avenir-Medium" font-size="28.0" fill="#5B5753" transform="matrix(1.00, 0.00, -0.00, -1.00, 240.2, 6.0)">)</text><text xml:space="preserve" font-family="Avenir-Medium" font-size="28.0" fill="#5B5753" transform="matrix(1.00, 0.00, -0.00, -1.00, 248.6, 6.0)">.</text></g></svg>