<?xml version="1.0" encoding="UTF-8" standalone="no"?><svg xmlns="http://www.w3.org/2000/svg" xmlns:xlink="http://www.w3.org/1999/xlink" clip-rule="evenodd" stroke-miterlimit="4.00" viewBox="0 0 376 32"><desc>SVG generated by Keynote</desc><defs></defs><g transform="matrix(1.00, 0.00, -0.00, -1.00, 0.0, 32.0)"><text xml:space="preserve" font-family="Avenir-Medium" font-size="21.0" fill="#9A958D" transform="matrix(1.00, 0.00, -0.00, -1.00, 0.0, 10.2)">•</text><text xml:space="preserve" font-family="Avenir-Medium" font-size="28.0" fill="#5B5753" transform="matrix(1.00, 0.00, -0.00, -1.00, 30.0, 8.0)">V</text><text xml:space="preserve" font-family="Avenir-Medium" font-size="28.0" fill="#5B5753" transform="matrix(1.00, 0.00, -0.00, -1.00, 46.7, 8.0)">e</text><text xml:space="preserve" font-family="Avenir-Medium" font-size="28.0" fill="#5B5753" transform="matrix(1.00, 0.00, -0.00, -1.00, 62.8, 8.0)">r</text><text xml:space="preserve" font-family="Avenir-Medium" font-size="28.0" fill="#5B5753" transform="matrix(1.00, 0.00, -0.00, -1.00, 73.7, 8.0)">y</text><text xml:space="preserve" font-family="Avenir-Medium" font-size="28.0" fill="#5B5753" transform="matrix(1.00, 0.00, -0.00, -1.00, 88.3, 8.0)"> </text><text xml:space="preserve" font-family="Avenir-Medium" font-size="28.0" fill="#5B5753" transform="matrix(1.00, 0.00, -0.00, -1.00, 96.6, 8.0)">s</text><text xml:space="preserve" font-family="Avenir-Medium" font-size="28.0" fill="#5B5753" transform="matrix(1.00, 0.00, -0.00, -1.00, 109.6, 8.0)">o</text><text xml:space="preserve" font-family="Avenir-Medium" font-size="28.0" fill="#5B5753" transform="matrix(1.00, 0.00, -0.00, -1.00, 126.8, 8.0)">l</text><text xml:space="preserve" font-family="Avenir-Medium" font-size="28.0" fill="#5B5753" transform="matrix(1.00, 0.00, -0.00, -1.00, 134.1, 8.0)">i</text><text xml:space="preserve" font-family="Avenir-Medium" font-size="28.0" fill="#5B5753" transform="matrix(1.00, 0.00, -0.00, -1.00, 141.4, 8.0)">d</text><text xml:space="preserve" font-family="Avenir-Medium" font-size="28.0" fill="#5B5753" transform="matrix(1.00, 0.00, -0.00, -1.00, 159.0, 8.0)"> </text><text xml:space="preserve" font-family="Avenir-Medium" font-size="28.0" fill="#5B5753" transform="matrix(1.00, 0.00, -0.00, -1.00, 167.4, 8.0)">s</text><text xml:space="preserve" font-family="Avenir-Medium" font-size="28.0" fill="#5B5753" transform="matrix(1.00, 0.00, -0.00, -1.00, 180.4, 8.0)">t</text><text xml:space="preserve" font-family="Avenir-Medium" font-size="28.0" fill="#5B5753" transform="matrix(1.00, 0.00, -0.00, -1.00, 191.3, 8.0)">a</text><text xml:space="preserve" font-family="Avenir-Medium" font-size="28.0" fill="#5B5753" transform="matrix(1.00, 0.00, -0.00, -1.00, 206.4, 8.0)">n</text><text xml:space="preserve" font-family="Avenir-Medium" font-size="28.0" fill="#5B5753" transform="matrix(1.00, 0.00, -0.00, -1.00, 222.5, 8.0)">d</text><text xml:space="preserve" font-family="Avenir-Medium" font-size="28.0" fill="#5B5753" transform="matrix(1.00, 0.00, -0.00, -1.00, 240.2, 8.0)">a</text><text xml:space="preserve" font-family="Avenir-Medium" font-size="28.0" fill="#5B5753" transform="matrix(1.00, 0.00, -0.00, -1.00, 255.3, 8.0)">r</text><text xml:space="preserve" font-family="Avenir-Medium" font-size="28.0" fill="#5B5753" transform="matrix(1.00, 0.00, -0.00, -1.00, 265.7, 8.0)">d</text><text xml:space="preserve" font-family="Avenir-Medium" font-size="28.0" fill="#5B5753" transform="matrix(1.00, 0.00, -0.00, -1.00, 283.3, 8.0)"> </text><text xml:space="preserve" font-family="Avenir-Medium" font-size="28.0" fill="#5B5753" transform="matrix(1.00, 0.00, -0.00, -1.00, 291.7, 8.0)">l</text><text xml:space="preserve" font-family="Avenir-Medium" font-size="28.0" fill="#5B5753" transform="matrix(1.00, 0.00, -0.00, -1.00, 299.0, 8.0)">i</text><text xml:space="preserve" font-family="Avenir-Medium" font-size="28.0" fill="#5B5753" transform="matrix(1.00, 0.00, -0.00, -1.00, 306.2, 8.0)">b</text><text xml:space="preserve" font-family="Avenir-Medium" font-size="28.0" fill="#5B5753" transform="matrix(1.00, 0.00, -0.00, -1.00, 323.9, 8.0)">r</text><text xml:space="preserve" font-family="Avenir-Medium" font-size="28.0" fill="#5B5753" transform="matrix(1.00, 0.00, -0.00, -1.00, 334.8, 8.0)">a</text><text xml:space="preserve" font-family="Avenir-Medium" font-size="28.0" fill="#5B5753" transform="matrix(1.00, 0.00, -0.00, -1.00, 349.9, 8.0)">r</text><text xml:space="preserve" font-family="Avenir-Medium" font-size="28.0" fill="#5B5753" transform="matrix(1.00, 0.00, -0.00, -1.00, 360.8, 8.0)">y</text></g></svg>